<svg id="图层_1" data-name="图层 1" xmlns="http://www.w3.org/2000/svg" viewBox="0 0 50 50"><defs><style>.cls-1{fill:#fff;}</style></defs><path id="安全保障" class="cls-1" d="M39.24,11.36a19.11,19.11,0,0,1-13.4-5,1,1,0,0,0-1.6,0h0a19.28,19.28,0,0,1-13.4,5,1.22,1.22,0,0,0-1.2,1.2V27A13.76,13.76,0,0,0,16,38.46l8.3,5.4a1.48,1.48,0,0,0,1.3,0l8.3-5.4A13.65,13.65,0,0,0,40.34,27V12.56a1,1,0,0,0-1.1-1.2ZM27.24,31a2,2,0,0,1-2.2,1.7,2,2,0,0,1-2.2-1.7c0-1.2,1.4-2,1.4-3.7,0-2.2-1.9-5.2-1.9-7.1a2.45,2.45,0,0,1,2.7-2.4,2.45,2.45,0,0,1,2.7,2.4c0,1.8-1.9,4.9-1.9,7.1.1,1.9,1.4,2.4,1.4,3.7Z"/></svg>