<svg id="图层_1" data-name="图层 1" xmlns="http://www.w3.org/2000/svg" viewBox="0 0 50 50"><defs><style>.cls-1{fill:#0fbfff;}</style></defs><path class="cls-1" d="M40.77,26.57a4.17,4.17,0,0,0-.71.07L31.58,11.57A3.81,3.81,0,0,0,32,9.89a3.9,3.9,0,0,0-7.41-1.71L13.85,12.12a3.24,3.24,0,1,0-3.78,5.21L8.43,28a3.9,3.9,0,0,0,.8,7.72,3.86,3.86,0,0,0,2.82-1.21L22,40.69s0,.05,0,.08a3.25,3.25,0,0,0,6.49,0,1.69,1.69,0,0,0,0-.23l9.73-7.13h0a3.9,3.9,0,1,0,2.58-6.83Zm-16.16,11a3,3,0,0,0-1.2.5l-2.62-6.25,4.44-.23ZM20.42,31l-3.27-7.81,3.28-3.58,5.65,3.71-.76,7.42Zm-7.31.38a3.87,3.87,0,0,0-1.24-2.43l4-4.34,2.71,6.48Zm-.24-13.86,2.6,6.21-4.31,4.7a3.5,3.5,0,0,0-.94-.38L11.8,17.73A3.15,3.15,0,0,0,12.87,17.49Zm14.21-3.83-.79,7.67-4.66-3.06,4.55-5A3.53,3.53,0,0,0,27.08,13.66Zm-1.62-.87-4.57,5-6.08-4a.83.83,0,0,0,0-.15l9.41-3.47A3.87,3.87,0,0,0,25.46,12.79Zm-10.83,3,5.06,3.33-2.91,3.18L14.3,16.35A3.74,3.74,0,0,0,14.63,15.76Zm13.11,8.62,8.75,5.76-9.39.48Zm9.6,4.22L28,22.42l.9-8.71A3.73,3.73,0,0,0,30.38,13l8.07,14.32A4.06,4.06,0,0,0,37.34,28.6ZM28.07,7.74a2.15,2.15,0,1,1-2.15,2.15A2.16,2.16,0,0,1,28.07,7.74ZM11.64,13h0a1.49,1.49,0,0,1,1.46,1.17.93.93,0,0,0,0,.37A1.49,1.49,0,1,1,11.64,13ZM9.23,33.93a2.15,2.15,0,0,1-.08-4.29h.08a2.15,2.15,0,1,1,0,4.29Zm3.88-1.71,5.81-.3,2.72,6.48L13,33A3.7,3.7,0,0,0,13.11,32.22Zm12.11,10a1.5,1.5,0,0,1,0-3h0a1.5,1.5,0,0,1,0,3Zm2.61-3.42a3.24,3.24,0,0,0-1.47-1.11L27,31.5,36.9,31a4.1,4.1,0,0,0,.27,1l0,0Zm12.94-6.22a2.15,2.15,0,0,1-.91-4.1,1,1,0,0,0,.22-.09h0a2.26,2.26,0,0,1,.69-.11h0a2.15,2.15,0,0,1,0,4.3Z"/></svg>