<?xml version="1.0" encoding="utf-8"?>
<!-- Generator: Adobe Illustrator 26.0.0, SVG Export Plug-In . SVG Version: 6.00 Build 0)  -->
<svg version="1.1" id="图层_1" xmlns="http://www.w3.org/2000/svg" xmlns:xlink="http://www.w3.org/1999/xlink" x="0px" y="0px"
	 viewBox="0 0 200 200" style="enable-background:new 0 0 200 200;" xml:space="preserve">
<style type="text/css">
	.st0{fill:#814BF6;}
</style>
<path class="st0" d="M185.8,200c-3.8,0-7.4-1.5-10.1-4.1L4.2,24.4c-5.6-5.6-5.6-14.7,0-20.3s14.7-5.6,20.3,0l0,0l171.4,171.4
	c5.6,5.6,5.6,14.6,0.1,20.2C193.3,198.5,189.6,200,185.8,200z"/>
<path class="st0" d="M14.4,200C6.5,200,0,193.7,0,185.8c0-3.8,1.5-7.5,4.2-10.2L175.7,4.1c6-5.1,15-4.4,20.1,1.6
	c4.6,5.3,4.6,13.2,0,18.6L24.4,195.7C21.7,198.4,18.1,199.9,14.4,200L14.4,200z"/>
</svg>
