<svg id="图层_1" data-name="图层 1" xmlns="http://www.w3.org/2000/svg" xmlns:xlink="http://www.w3.org/1999/xlink" viewBox="0 0 600 600"><defs><style>.cls-1{fill:none;}.cls-2{clip-path:url(#clip-path);}.cls-3{fill:#8012ff;}.cls-4{fill:#1d2383;}.cls-5{opacity:0.66;}.cls-6{clip-path:url(#clip-path-3);}.cls-7{fill:#fff;}.cls-8{fill:#39dfd9;}.cls-9{fill:#35b5f9;}.cls-10{fill:#0f68a7;}.cls-11{fill:#0af;}.cls-12{fill:#fb6b73;}.cls-13{fill:#607fbf;}.cls-14{clip-path:url(#clip-path-4);}.cls-15{fill:#b4bed6;}.cls-16{clip-path:url(#clip-path-6);}.cls-17{fill:#cdfbff;}.cls-18{fill:#80d9ff;}.cls-19{fill:#4c08af;}.cls-20{clip-path:url(#clip-path-7);}.cls-21{fill:#ff8500;}.cls-22{fill:#ffd710;}.cls-23{fill:#ffd31a;}.cls-24{fill:#33d9ff;}.cls-25{fill:#d0d1d3;}.cls-26{fill:#cadae8;}</style><clipPath id="clip-path"><rect class="cls-1" x="94.53" y="119.4" width="453" height="387.18"/></clipPath><clipPath id="clip-path-3"><rect class="cls-1" x="99.29" y="124.25" width="315.01" height="247.6"/></clipPath><clipPath id="clip-path-4"><path class="cls-1" d="M416.25,323.05c-11.08,27.09-5.74,55.34,11.66,65.74,19.49,3.94,42.42-12.35,53.3-39,11.08-27.11,5.75-55.34-11.65-65.74a30.23,30.23,0,0,0-5.92-.58c-18,0-37.6,15.6-47.39,39.58"/></clipPath><clipPath id="clip-path-6"><rect class="cls-1" x="102.62" y="186.05" width="316.37" height="182.3"/></clipPath><clipPath id="clip-path-7"><path class="cls-1" d="M158,421.3c-5.12,21.49,12.83,47.13,42.42,59.13,29.1,11.78,59.24,6.3,71-11.9,5.14-21.53-12.83-47.17-42.42-59.14a82.47,82.47,0,0,0-30.77-6.23c-17.56,0-32.68,6.45-40.23,18.14"/></clipPath></defs><g class="cls-2"><g id="组_95" data-name="组 95"><g id="组_83" data-name="组 83"><g class="cls-2"><g id="组_82" data-name="组 82"><path id="路径_394" data-name="路径 394" class="cls-3" d="M263.8,456.59c-92,0-166.9-74.84-166.9-166.9s74.84-166.9,166.9-166.9,166.9,74.84,166.9,166.9-74.88,166.9-166.9,166.9"/><path id="路径_395" data-name="路径 395" class="cls-4" d="M263.8,124.17A164.55,164.55,0,1,1,99.25,288.71h0A164.55,164.55,0,0,1,263.8,124.17Zm0-4.73c-93.34,0-169.27,75.94-169.27,169.27S170.46,458,263.8,458s169.27-75.94,169.27-169.28S357.14,119.4,263.8,119.4Z"/><g id="组_81" data-name="组 81" class="cls-5"><g id="组_80" data-name="组 80"><g class="cls-6"><g id="组_79" data-name="组 79"><path id="路径_396" data-name="路径 396" class="cls-7" d="M107.78,305.33a164.54,164.54,0,0,1,306.53-83.15A164.54,164.54,0,1,0,121.82,371.85a163.89,163.89,0,0,1-14-66.52"/></g></g></g></g><path id="路径_397" data-name="路径 397" class="cls-4" d="M209.35,356.71a182.71,182.71,0,0,1-107.06-34.3.52.52,0,0,1,.6-.85,181.73,181.73,0,0,0,106.45,34.11c95.51,0,175.66-74.55,182.49-169.7a.5.5,0,0,1,.54-.48h0a.52.52,0,0,1,.49.55h0A184,184,0,0,1,209.35,356.71"/><path id="路径_398" data-name="路径 398" class="cls-4" d="M392.34,186.05A164.54,164.54,0,1,1,102.62,322c82.43,58.94,197,39.9,256-42.53a183.49,183.49,0,0,0,33.74-93.38m0-4.73a4.71,4.71,0,0,0-4.71,4.37c-6.68,92.94-85,165.75-178.28,165.75A177.38,177.38,0,0,1,105.41,318.1a4.73,4.73,0,0,0-7.49,3.82,4.57,4.57,0,0,0,.1,1C114.08,401.15,183.82,458,263.83,458c93.34,0,169.28-75.94,169.28-169.28a167.41,167.41,0,0,0-37-105.61,4.75,4.75,0,0,0-3.7-1.78Z"/><path id="路径_401" data-name="路径 401" class="cls-8" d="M392.32,188.4a2.35,2.35,0,0,1-1.66-.68c-.08-.09-.16-.17-.23-.26a2.11,2.11,0,0,1-.56-1.94,2.37,2.37,0,0,1,1.38-1.62,2.52,2.52,0,0,1,1-.25,2.27,2.27,0,0,1,1.24.36,2.33,2.33,0,0,1,1.13,2,2.39,2.39,0,0,1-2.38,2.4h0Z"/><path id="路径_402" data-name="路径 402" class="cls-4" d="M392.35,186h0m0-4.72h0a4.76,4.76,0,1,0,0,9.52,4.74,4.74,0,1,0,0-9.48Z"/><path id="路径_403" data-name="路径 403" class="cls-9" d="M386.77,325.68a8.94,8.94,0,0,1-2.19-.27c-6.52-1.66-9.9-10.58-7.54-19.86,2.08-8.18,7.95-14.11,13.94-14.11a8.92,8.92,0,0,1,2.18.27c6.52,1.66,9.9,10.57,7.54,19.86C398.62,319.75,392.76,325.68,386.77,325.68Z"/><path id="路径_404" data-name="路径 404" class="cls-4" d="M391,292.62a8,8,0,0,1,1.89.23c5.9,1.51,8.89,9.76,6.69,18.43-2,7.75-7.45,13.22-12.8,13.22a8,8,0,0,1-1.89-.23c-5.89-1.51-8.89-9.76-6.67-18.43,2-7.75,7.43-13.22,12.78-13.22m0-2.37c-6.53,0-12.87,6.31-15.08,15a22.77,22.77,0,0,0,.37,13.28c1.53,4.24,4.38,7.09,8,8a10.25,10.25,0,0,0,2.47.31c6.53,0,12.87-6.31,15.08-15a22.85,22.85,0,0,0-.36-13.28c-1.54-4.24-4.39-7.09-8-8a9.84,9.84,0,0,0-2.47-.31"/><path id="路径_405" data-name="路径 405" class="cls-10" d="M389.77,324.53a7.54,7.54,0,0,1-1.94-.25c-2.88-.74-5.14-3-6.39-6.43a19.14,19.14,0,0,1-.29-11.09c1.84-7.2,7-12.48,12.3-12.48a8,8,0,0,1,1.95.25c2.89.73,5.2,3,6.39,6.44a18.94,18.94,0,0,1,.29,11.08c-1.83,7.2-7,12.47-12.31,12.47Z"/><path id="路径_406" data-name="路径 406" class="cls-4" d="M393.45,295.51a6.63,6.63,0,0,1,1.66.21c5.2,1.31,7.76,8.51,5.83,16.08-1.73,6.76-6.49,11.55-11.17,11.55a7.69,7.69,0,0,1-1.65-.21c-5.14-1.31-7.75-8.52-5.83-16.09,1.73-6.77,6.5-11.54,11.16-11.54m0-2.37c-5.83,0-11.48,5.6-13.45,13.33a20.18,20.18,0,0,0,.34,11.77c1.37,3.8,3.93,6.35,7.2,7.18a8.85,8.85,0,0,0,2.23.28c5.83,0,11.49-5.6,13.46-13.32,2.29-9-1-17.3-7.53-19a9.5,9.5,0,0,0-2.25-.28"/><path id="路径_407" data-name="路径 407" class="cls-11" d="M401.07,319.73a1.14,1.14,0,0,1-.54-.14,36.47,36.47,0,0,0-16.63-4.16h-1.58a1.17,1.17,0,0,1-1.17-1,22.73,22.73,0,0,1,.64-8,23.6,23.6,0,0,1,1.78-4.79,1.21,1.21,0,0,1,.79-.62,32.84,32.84,0,0,1,7.52-.84,37.56,37.56,0,0,1,12.85,2.3,1.18,1.18,0,0,1,.77.94,22.79,22.79,0,0,1-.51,8.93,23.39,23.39,0,0,1-2.94,6.83,1.21,1.21,0,0,1-1,.54"/><path id="路径_408" data-name="路径 408" class="cls-4" d="M391.9,301.37a36.65,36.65,0,0,1,12.48,2.24,21.74,21.74,0,0,1-.49,8.46,22.16,22.16,0,0,1-2.8,6.47A37.39,37.39,0,0,0,384,314.25h-1.59a22.53,22.53,0,0,1,2.31-12.1,32.34,32.34,0,0,1,7.27-.81m0-2.37a34.5,34.5,0,0,0-7.78.87,2.39,2.39,0,0,0-1.59,1.25,25.12,25.12,0,0,0-1.86,5,24.33,24.33,0,0,0-.68,8.37,2.36,2.36,0,0,0,2.35,2.08H384a35.25,35.25,0,0,1,16.06,4,2.39,2.39,0,0,0,3.12-.82,24.77,24.77,0,0,0,3.62-16.57,2.38,2.38,0,0,0-1.52-1.87A39,39,0,0,0,392,299Z"/><path id="路径_409" data-name="路径 409" class="cls-12" d="M440.66,395.6a43.58,43.58,0,0,1-16.57-3.22c-26.89-11-37.73-47-24.15-80.2,10.65-26.06,33.49-43.57,56.82-43.57a43.58,43.58,0,0,1,16.57,3.22c26.9,11,37.74,47,24.17,80.2C486.84,378.1,464,395.6,440.67,395.6Z"/><path id="路径_410" data-name="路径 410" class="cls-4" d="M456.76,269.8a42.25,42.25,0,0,1,16.13,3.11c26.33,10.76,36.86,46,23.5,78.65-10.7,26.22-33.52,42.84-55.72,42.84a42.45,42.45,0,0,1-16.13-3.12c-26.34-10.76-36.86-46-23.51-78.65,10.68-26.21,33.55-42.83,55.73-42.83m0-2.37c-23.81,0-47.09,17.8-57.91,44.3-6.67,16.31-7.81,33.75-3.22,49.13,4.66,15.59,14.6,27.13,28.07,32.61a44.71,44.71,0,0,0,17,3.32c23.81,0,47.09-17.8,57.92-44.31,6.66-16.3,7.8-33.75,3.2-49.12-4.65-15.59-14.55-27.14-28-32.62a45,45,0,0,0-17-3.31Z"/><path id="路径_411" data-name="路径 411" class="cls-7" d="M441.09,403.26a35.1,35.1,0,0,1-13.39-2.58c-11.91-4.87-20.4-16-23.9-31.31-3.49-15.17-1.66-32.68,5.13-49.31,11.31-27.67,34.53-47,56.47-47a35.11,35.11,0,0,1,13.39,2.59c11.91,4.86,20.4,16,23.9,31.3,3.49,15.17,1.66,32.68-5.13,49.31-11.31,27.67-34.53,47-56.47,47"/><path id="路径_412" data-name="路径 412" class="cls-4" d="M465.39,274.26a34.37,34.37,0,0,1,12.94,2.5c23.91,9.75,32,45.16,18.13,79.08C485,383.9,462.16,402.1,441.09,402.1a34,34,0,0,1-12.94-2.5c-23.91-9.74-32-45.15-18.13-79.07,11.43-28.07,34.3-46.27,55.37-46.27m0-2.35c-22.41,0-46.08,19.62-57.56,47.72-6.88,16.86-8.73,34.63-5.2,50,3.61,15.71,12.35,27.12,24.62,32.14a36.42,36.42,0,0,0,13.84,2.67c22.4,0,46.07-19.62,57.56-47.73,6.88-16.86,8.73-34.62,5.2-50-3.61-15.7-12.35-27.11-24.63-32.12a36.23,36.23,0,0,0-13.83-2.68Z"/><path id="路径_413" data-name="路径 413" class="cls-13" d="M442.83,394.05a30.3,30.3,0,0,1-11.51-2.22c-10.25-4.16-17.56-13.75-20.57-26.91s-1.43-28.06,4.41-42.31c9.7-23.74,29.63-40.33,48.48-40.33a30.5,30.5,0,0,1,11.48,2.22c10.25,4.16,17.55,13.75,20.57,26.92,3,13,1.42,28.07-4.41,42.3-9.7,23.75-29.63,40.33-48.48,40.33Z"/><path id="路径_414" data-name="路径 414" class="cls-4" d="M463.68,283.46a29.12,29.12,0,0,1,11.07,2.14c20.44,8.32,27.38,38.65,15.52,67.68-9.79,24-29.36,39.6-47.38,39.6a29,29,0,0,1-11.08-2.16c-20.42-8.31-27.38-38.64-15.52-67.67,9.8-24,29.37-39.59,47.4-39.59m0-2.37c-19.32,0-39.7,16.89-49.59,41.07-12.33,30.19-4.79,61.94,16.81,70.76a31.39,31.39,0,0,0,12,2.32c19.32,0,39.7-16.89,49.58-41.06,12.33-30.2,4.8-61.94-16.81-70.77a31.53,31.53,0,0,0-12-2.31"/><path id="路径_415" data-name="路径 415" class="cls-7" d="M433.82,390.56a31.81,31.81,0,0,1-6.15-.6c-18.51-11-23.73-39.89-12.47-67.35,9.7-23.74,29.63-40.32,48.47-40.32a31.09,31.09,0,0,1,6.16.62c18.51,11,23.74,39.89,12.52,67.34-9.74,23.74-29.68,40.32-48.53,40.32"/><path id="路径_416" data-name="路径 416" class="cls-4" d="M463.68,283.47a30.27,30.27,0,0,1,5.93.59c17.4,10.39,22.73,38.62,11.65,65.74-9.79,24-29.35,39.58-47.37,39.58a29.52,29.52,0,0,1-5.93-.59c-17.4-10.39-22.74-38.62-11.66-65.74,9.79-24,29.36-39.58,47.39-39.58m0-2.36h0c-19.32,0-39.7,16.88-49.58,41.05-11.44,28-6,57.52,12.64,68.66a2.24,2.24,0,0,0,.74.29,32.76,32.76,0,0,0,6.4.64c19.31,0,39.69-16.88,49.56-41.06,11.44-28,6-57.51-12.63-68.66a2.78,2.78,0,0,0-.74-.29,32.75,32.75,0,0,0-6.4-.63Z"/></g></g></g><g id="组_85" data-name="组 85"><g class="cls-14"><g id="组_84" data-name="组 84"><path id="路径_417" data-name="路径 417" class="cls-15" d="M416.2,323.54a.57.57,0,0,1-.43-.29.65.65,0,0,1,0-.51,79.78,79.78,0,0,1,6.41-12.47.61.61,0,0,1,.5-.28l73.38,12.09a.56.56,0,0,1,.5.56,70.42,70.42,0,0,1-.85,13.37.56.56,0,0,1-.24.39.6.6,0,0,1-.34.11Z"/><path id="路径_418" data-name="路径 418" class="cls-4" d="M422.65,310.64l73.32,12a70.19,70.19,0,0,1-.84,13.27l-78.84-13a79.73,79.73,0,0,1,6.36-12.32m0-1.18a1.2,1.2,0,0,0-1,.54,81.25,81.25,0,0,0-6.45,12.55,1.16,1.16,0,0,0,.63,1.53.77.77,0,0,0,.27.08l78.83,12.91h.19a1.14,1.14,0,0,0,.69-.22,1.2,1.2,0,0,0,.47-.78,69.43,69.43,0,0,0,.87-13.51,1.18,1.18,0,0,0-1-1.13l-73.23-12Z"/><path id="路径_419" data-name="路径 419" class="cls-15" d="M417.65,379.42a.53.53,0,0,1-.39-.26,44,44,0,0,1-6-14.55.59.59,0,0,1,.45-.7l.12,0,65,10.64a.59.59,0,0,1,.36,1A60.76,60.76,0,0,1,464,386.86a.62.62,0,0,1-.32.09Z"/><path id="路径_420" data-name="路径 420" class="cls-4" d="M411.86,364.47l64.95,10.62a60.63,60.63,0,0,1-13.12,11.26l-45.93-7.51a43.84,43.84,0,0,1-5.88-14.37m0-1.18a1.23,1.23,0,0,0-.87.37,1.2,1.2,0,0,0-.29,1,45.34,45.34,0,0,0,6,14.75,1.16,1.16,0,0,0,.8.52l45.92,7.59h.19a1.13,1.13,0,0,0,.62-.19,61.53,61.53,0,0,0,13.39-11.43,1.2,1.2,0,0,0-.69-2l-64.95-10.62h-.19Z"/><path id="路径_421" data-name="路径 421" class="cls-15" d="M425.73,306.56a.59.59,0,0,1-.46-.36.64.64,0,0,1,.07-.57,67.29,67.29,0,0,1,11-11.72.65.65,0,0,1,.37-.14l55.24,9a.56.56,0,0,1,.43.34,51.22,51.22,0,0,1,3.74,14.18.57.57,0,0,1-.18.48.58.58,0,0,1-.41.17Z"/><path id="路径_422" data-name="路径 422" class="cls-4" d="M436.74,294.37l55.14,9a50.6,50.6,0,0,1,3.68,14l-69.74-11.44a66.73,66.73,0,0,1,10.92-11.61m0-1.18a1.2,1.2,0,0,0-.76.27,68,68,0,0,0-11.11,11.82,1.21,1.21,0,0,0-.15,1.15,1.17,1.17,0,0,0,.9.72l69.74,11.43h.2a1.18,1.18,0,0,0,1.18-1.19.57.57,0,0,0,0-.13A51.58,51.58,0,0,0,493,302.88a1.18,1.18,0,0,0-.89-.7l-55.14-9h-.18Z"/><path id="路径_423" data-name="路径 423" class="cls-15" d="M411.22,341.27a.59.59,0,0,1-.48-.67,77.36,77.36,0,0,1,3.19-13,.58.58,0,0,1,.56-.4l79.77,13a.54.54,0,0,1,.39.25.62.62,0,0,1,.09.46,81.4,81.4,0,0,1-4,12.47c-.1.25-.47.68-.74.68Z"/><path id="路径_424" data-name="路径 424" class="cls-4" d="M414.48,327.81l79.68,13a79.86,79.86,0,0,1-3.93,12.47.85.85,0,0,1-.13.31l-78.78-12.9a76.9,76.9,0,0,1,3.12-12.87m0-1.19a1.16,1.16,0,0,0-1.11.8,79.46,79.46,0,0,0-3.23,13.09,1.2,1.2,0,0,0,1,1.34l78.79,12.9h.18a1.17,1.17,0,0,0,1-.73l.14-.31a80.65,80.65,0,0,0,4-12.61,1.2,1.2,0,0,0-.91-1.42h-.06l-79.57-13.07h-.2Z"/><path id="路径_425" data-name="路径 425" class="cls-15" d="M442.84,393.46a29.29,29.29,0,0,1-20.58-8.25.59.59,0,0,1,.4-1l33.45,5.45a.57.57,0,0,1,.49.52.59.59,0,0,1-.37.61,36.61,36.61,0,0,1-13.4,2.69"/><path id="路径_426" data-name="路径 426" class="cls-4" d="M422.66,384.78,456,390.24a35.89,35.89,0,0,1-13.18,2.63,28.75,28.75,0,0,1-20.17-8.09m0-1.18a1.18,1.18,0,0,0-.81,2.08,29.87,29.87,0,0,0,21,8.42,37.41,37.41,0,0,0,13.62-2.72,1.17,1.17,0,0,0,.66-1.53,1.16,1.16,0,0,0-.91-.73l-33.34-5.46h-.2Z"/><path id="路径_427" data-name="路径 427" class="cls-15" d="M442.41,290.75a.6.6,0,0,1-.48-.47.57.57,0,0,1,.26-.61c7-4.45,14.45-6.8,21.45-6.8a29.51,29.51,0,0,1,11.29,2.18,31,31,0,0,1,14.46,12.38.63.63,0,0,1,0,.65.6.6,0,0,1-.5.27Z"/><path id="路径_428" data-name="路径 428" class="cls-4" d="M463.68,283.46a29.12,29.12,0,0,1,11.07,2.14,30.64,30.64,0,0,1,14.18,12.15l-46.39-7.58c6.84-4.33,14.1-6.7,21.14-6.7m0-1.19c-7.12,0-14.64,2.38-21.76,6.89a1.18,1.18,0,0,0,.44,2.17l46.38,7.58h.19a1.17,1.17,0,0,0,1.22-1.14,1.13,1.13,0,0,0-.18-.67,31.6,31.6,0,0,0-14.85-12.6,30.31,30.31,0,0,0-11.44-2.23"/><path id="路径_429" data-name="路径 429" class="cls-15" d="M410.84,359.75a.59.59,0,0,1-.49-.5,65.6,65.6,0,0,1-.23-13.51.64.64,0,0,1,.22-.42.64.64,0,0,1,.38-.12L488,357.85a.53.53,0,0,1,.42.3.62.62,0,0,1,0,.53A76.56,76.56,0,0,1,481,371a.57.57,0,0,1-.48.23Z"/><path id="路径_430" data-name="路径 430" class="cls-4" d="M410.68,345.74l77.21,12.64a76.55,76.55,0,0,1-7.43,12.18L410.9,359.13a64.15,64.15,0,0,1-.22-13.43m0-1.19a1.17,1.17,0,0,0-.73.25,1.19,1.19,0,0,0-.46.83,65.26,65.26,0,0,0,.24,13.69,1.19,1.19,0,0,0,1,1l69.6,11.4h.18a1.2,1.2,0,0,0,1-.47A79.27,79.27,0,0,0,489,358.88a1.24,1.24,0,0,0,0-1,1.25,1.25,0,0,0-.87-.63l-77.22-12.64Z"/></g></g></g><g id="组_90" data-name="组 90"><g class="cls-2"><g id="组_89" data-name="组 89"><g id="组_88" data-name="组 88" class="cls-5"><g id="组_87" data-name="组 87"><g class="cls-16"><g id="组_86" data-name="组 86"><path id="路径_432" data-name="路径 432" class="cls-17" d="M107.47,334.13h0A183.48,183.48,0,0,0,397.16,198.22,165.18,165.18,0,0,1,419,234.17a164.73,164.73,0,0,0-26.71-48.12c-7.39,101.07-95.31,177-196.38,169.61A183.44,183.44,0,0,1,102.62,322a163.36,163.36,0,0,0,10.9,33.84,162.26,162.26,0,0,1-6-21.67"/></g></g></g></g><path id="路径_433" data-name="路径 433" class="cls-9" d="M243.85,391.83a24.34,24.34,0,0,1-11.95-3.4c-9-5.2-13.35-14.55-9.73-20.86,2-3.43,6-5.4,11-5.4a24.41,24.41,0,0,1,11.92,3.4c9,5.2,13.36,14.55,9.73,20.86-2,3.43-6,5.4-11,5.4"/><path id="路径_434" data-name="路径 434" class="cls-4" d="M233.21,363.35a23.09,23.09,0,0,1,11.33,3.24c8.45,4.88,12.61,13.52,9.29,19.24-1.84,3.18-5.58,4.82-10,4.82a23.17,23.17,0,0,1-11.32-3.25c-8.45-4.88-12.6-13.51-9.29-19.24,1.84-3.18,5.57-4.81,10-4.81m0-2.37h0c-5.44,0-9.82,2.19-12,6-2,3.48-2,7.8.16,12.16a24.72,24.72,0,0,0,10,10.31A25.61,25.61,0,0,0,243.81,393c5.45,0,9.84-2.18,12-6,2-3.47,2-7.79-.16-12.15a24.69,24.69,0,0,0-10-10.31A25.59,25.59,0,0,0,233.21,361Z"/><path id="路径_435" data-name="路径 435" class="cls-10" d="M241.79,392.86a21.61,21.61,0,0,1-10.48-3c-7.92-4.59-11.76-12.85-8.55-18.42,1.77-3,5.32-4.79,9.74-4.79a21.24,21.24,0,0,1,10.48,3,20.72,20.72,0,0,1,8.38,8.62c1.71,3.53,1.77,7,.16,9.79-1.75,3-5.31,4.79-9.74,4.79"/><path id="路径_436" data-name="路径 436" class="cls-4" d="M232.5,367.81a20.06,20.06,0,0,1,9.89,2.83c7.38,4.26,11,11.77,8.12,16.8-1.6,2.77-4.88,4.16-8.72,4.16a20.27,20.27,0,0,1-9.89-2.83c-7.37-4.26-11-11.78-8.11-16.8,1.6-2.78,4.87-4.16,8.71-4.16m0-2.37h0c-4.86,0-8.78,2-10.75,5.38-3.61,6.24.34,15,9,20A22.52,22.52,0,0,0,241.79,394c4.86,0,8.79-2,10.76-5.38,3.6-6.24-.34-15-9-20a22.69,22.69,0,0,0-11.07-3.12"/><path id="路径_437" data-name="路径 437" class="cls-18" d="M236.83,395.24a25.2,25.2,0,0,1-7.54-2.88A24.8,24.8,0,0,1,222,386a1.15,1.15,0,0,1-.14-1.21,39.11,39.11,0,0,1,14.28-17,1.23,1.23,0,0,1,.65-.19,1.43,1.43,0,0,1,.35.06,26,26,0,0,1,11.74,7.78,1.17,1.17,0,0,1-.09,1.62,39.34,39.34,0,0,0-10.62,17.34,1.18,1.18,0,0,1-1.14.84.82.82,0,0,1-.22,0"/><path id="路径_438" data-name="路径 438" class="cls-4" d="M236.8,368.85a24.67,24.67,0,0,1,4.85,2.14,24.24,24.24,0,0,1,6.36,5.27,40.48,40.48,0,0,0-10.9,17.83,24,24,0,0,1-7.18-2.76,23.55,23.55,0,0,1-7-6.06,38.06,38.06,0,0,1,13.84-16.42m0-2.37a2.44,2.44,0,0,0-1.28.37,40.43,40.43,0,0,0-14.76,17.48,2.43,2.43,0,0,0,.27,2.41,26.69,26.69,0,0,0,15.6,9.68,1.82,1.82,0,0,0,.46.06,2.38,2.38,0,0,0,2.27-1.68A38.06,38.06,0,0,1,249.65,378a2.36,2.36,0,0,0,.2-3.25,26.39,26.39,0,0,0-7-5.8,26.73,26.73,0,0,0-5.3-2.35,2.51,2.51,0,0,0-.72-.11Z"/><path id="路径_439" data-name="路径 439" class="cls-19" d="M221.51,501a83.89,83.89,0,0,1-31.67-6.32c-17.5-7.09-31.73-19.27-40.07-34.3s-9.82-31.25-4-45.47c8.2-20.25,29.47-32.83,55.52-32.83a84.06,84.06,0,0,1,31.69,6.35c17.5,7.1,31.73,19.27,40.07,34.3s9.83,31.25,4.05,45.48C268.84,488.44,247.55,501,221.51,501"/><path id="路径_440" data-name="路径 440" class="cls-4" d="M201.25,383.32a83.2,83.2,0,0,1,31.23,6.23C268.14,404,287.57,439,276,467.75c-8.25,20.34-29.87,32.06-54.44,32.06a83.15,83.15,0,0,1-31.18-6.24c-35.67-14.46-55.09-49.48-43.47-78.21,8.24-20.33,29.86-32.07,54.43-32.07m0-2.36h0c-26.55,0-48.28,12.87-56.7,33.57-12.12,29.9,8,66.36,44.77,81.3a85.43,85.43,0,0,0,32.15,6.4c26.54,0,48.23-12.86,56.63-33.55,12.12-29.89-8-66.37-44.78-81.29a85,85,0,0,0-32.1-6.4Z"/><path id="路径_441" data-name="路径 441" class="cls-7" d="M229.49,505.34A97.9,97.9,0,0,1,193.11,498c-37.54-15.23-59.32-49.26-48.53-75.87,7-17.27,26.65-28,51.28-28a97.65,97.65,0,0,1,36.37,7.37c37.56,15.22,59.33,49.26,48.54,75.87-7,17.28-26.65,28-51.28,28"/><path id="路径_442" data-name="路径 442" class="cls-4" d="M195.83,395.28a96.29,96.29,0,0,1,36,7.28c37,15,58.45,48.29,47.92,74.39-7.09,17.48-26.8,27.26-50.19,27.26a96.24,96.24,0,0,1-36-7.28c-37-15-58.44-48.29-47.88-74.33,7.09-17.49,26.8-27.27,50.18-27.27m0-2.37c-25.11,0-45.18,11-52.37,28.74-11,27.21,11,61.95,49.19,77.43a99.26,99.26,0,0,0,36.84,7.45c25.12,0,45.19-11,52.37-28.74,5.38-13.37,3.14-28.82-6.34-43.51-9.35-14.45-24.54-26.5-42.88-33.95a99.39,99.39,0,0,0-36.85-7.45Z"/><path id="路径_443" data-name="路径 443" class="cls-13" d="M227.07,497.49a83.82,83.82,0,0,1-31.18-6.31c-15.59-6.3-28.44-16.51-36.32-28.72s-9.84-25.3-5.32-36.44c6-14.85,22.87-24.08,44.05-24.08a84.07,84.07,0,0,1,31.18,6.32c32.22,13.07,50.93,42.3,41.64,65.16-6,14.85-22.9,24.07-44.05,24.07"/><path id="路径_444" data-name="路径 444" class="cls-4" d="M198.27,403.15A82.43,82.43,0,0,1,229,409.39c31.68,12.84,50,41.33,41,63.62-6.07,15-22.94,23.33-43,23.33a82.53,82.53,0,0,1-30.78-6.24c-31.67-12.84-50-41.33-41-63.62,6.07-15,22.94-23.33,43-23.33m0-2.37c-21.64,0-39,9.51-45.15,24.81-9.51,23.47,9.45,53.39,42.29,66.71a85.33,85.33,0,0,0,31.66,6.4c21.64,0,38.93-9.51,45.14-24.81,9.52-23.47-9.45-53.4-42.28-66.71A85.37,85.37,0,0,0,198.27,400.78Z"/><path id="路径_445" data-name="路径 445" class="cls-7" d="M231.2,487.8A84.06,84.06,0,0,1,200,481.49c-29.91-12.14-48.45-38.14-43.12-60.5,7.71-12.06,23.12-19.05,41.4-19.05a84.27,84.27,0,0,1,31.18,6.32c29.91,12.13,48.46,38.15,43.12,60.5-7.71,12.06-23.12,19-41.4,19"/><path id="路径_446" data-name="路径 446" class="cls-4" d="M198.28,403.15A82.41,82.41,0,0,1,229,409.38c29.59,12,47.54,37.65,42.42,59.15-7.56,11.68-22.69,18.12-40.25,18.12a82.41,82.41,0,0,1-30.75-6.23c-29.59-12-47.54-37.64-42.42-59.13,7.56-11.72,22.69-18.14,40.25-18.14m0-2.36c-18.71,0-34.46,7.18-42.23,19.21a2.2,2.2,0,0,0-.31.74c-5.47,22.92,13.37,49.52,43.82,61.87A85.23,85.23,0,0,0,231.2,489c18.71,0,34.46-7.18,42.23-19.22a2.13,2.13,0,0,0,.32-.74c5.46-22.91-13.38-49.51-43.82-61.87a85.51,85.51,0,0,0-31.65-6.39Z"/></g></g></g><g id="组_92" data-name="组 92"><g class="cls-20"><g id="组_91" data-name="组 91"><path id="路径_447" data-name="路径 447" class="cls-15" d="M179,481.24a.55.55,0,0,1-.35-.12,74.74,74.74,0,0,1-11.06-9.51.58.58,0,0,1-.06-.74L214,404.54a.61.61,0,0,1,.49-.26h.13a87,87,0,0,1,14.55,4.47.59.59,0,0,1,.33.76h0a.83.83,0,0,1-.07.13L179.44,481a.61.61,0,0,1-.38.25Z"/><path id="路径_448" data-name="路径 448" class="cls-4" d="M214.45,404.87a87.12,87.12,0,0,1,14.48,4.44L179,480.65a75.53,75.53,0,0,1-11-9.44l46.45-66.34m0-1.18a1.17,1.17,0,0,0-1,.51l-46.44,66.33a1.17,1.17,0,0,0,.11,1.49,77.2,77.2,0,0,0,11.15,9.59,1.31,1.31,0,0,0,.69.22h.21a1.17,1.17,0,0,0,.76-.49L229.9,410a1.19,1.19,0,0,0-.29-1.65h0a1,1,0,0,0-.23-.13,88.69,88.69,0,0,0-14.69-4.5h-.24Z"/><path id="路径_449" data-name="路径 449" class="cls-15" d="M227.07,496.89c-1.18,0-2.36,0-3.56-.08a.59.59,0,0,1-.57-.6.66.66,0,0,1,.12-.33l41.13-58.76a.61.61,0,0,1,.49-.25.58.58,0,0,1,.49.27A48.55,48.55,0,0,1,272,452.85a.57.57,0,0,1-.1.47l-29.1,41.57a58,58,0,0,1-15.73,2Z"/><path id="路径_450" data-name="路径 450" class="cls-4" d="M264.68,437.45A47.64,47.64,0,0,1,271.4,453l-29.1,41.57a63.76,63.76,0,0,1-15.25,1.77c-1.16,0-2.34,0-3.52-.08Zm0-1.19a1.16,1.16,0,0,0-1,.51l-41.17,58.77a1.15,1.15,0,0,0-.1,1.2,1.17,1.17,0,0,0,1,.66c1.21.06,2.4.09,3.59.09a65.53,65.53,0,0,0,15.52-1.83,1.24,1.24,0,0,0,.68-.47l29.1-41.57a1.17,1.17,0,0,0,.19-.94,48.81,48.81,0,0,0-6.89-15.91,1.16,1.16,0,0,0-1-.54Z"/><path id="路径_451" data-name="路径 451" class="cls-15" d="M164.25,467.52a.57.57,0,0,1-.47-.23,55.41,55.41,0,0,1-8.2-13.68.59.59,0,0,1,0-.56l34.94-49.89a.56.56,0,0,1,.41-.25,71.83,71.83,0,0,1,7.33-.38,75.67,75.67,0,0,1,10.2.7.6.6,0,0,1,.5.68.64.64,0,0,1-.1.24l-44.18,63.1a.6.6,0,0,1-.47.26Z"/><path id="路径_452" data-name="路径 452" class="cls-4" d="M198.3,403.15a74.39,74.39,0,0,1,10.12.7L164.25,467a54.52,54.52,0,0,1-8.13-13.52l34.93-49.89a70.85,70.85,0,0,1,7.28-.38m0-1.18a72.61,72.61,0,0,0-7.37.38,1.18,1.18,0,0,0-.84.5l-34.94,49.89a1.15,1.15,0,0,0-.12,1.12,56.14,56.14,0,0,0,8.31,13.82,1.18,1.18,0,0,0,.93.45,1.22,1.22,0,0,0,.93-.51l44.19-63.1a1.19,1.19,0,0,0-.3-1.65h0a1.31,1.31,0,0,0-.52-.2,78.59,78.59,0,0,0-10.29-.7Z"/><path id="路径_453" data-name="路径 453" class="cls-15" d="M196.64,490.8a.45.45,0,0,1-.23,0l.23-.55-.39.49a87.2,87.2,0,0,1-12.95-6.52.56.56,0,0,1-.27-.38.62.62,0,0,1,.09-.46l50.49-72.08a.55.55,0,0,1,.47-.25.47.47,0,0,1,.26.05,85.34,85.34,0,0,1,12.55,7.39.6.6,0,0,1,.15.81l-49.9,71.28a.6.6,0,0,1-.5.22"/><path id="路径_454" data-name="路径 454" class="cls-4" d="M234.08,411.6a84.86,84.86,0,0,1,12.48,7.34l-49.89,71.28-.35-.14a87.52,87.52,0,0,1-12.68-6.39l50.48-72.09m0-1.19a1.23,1.23,0,0,0-1,.51L182.68,483a1.19,1.19,0,0,0,.3,1.66l.05,0a86.93,86.93,0,0,0,12.86,6.47,1.79,1.79,0,0,0,.68.13,1.35,1.35,0,0,0,1-.41l49.89-71.28a1.17,1.17,0,0,0-.28-1.64,85.61,85.61,0,0,0-12.64-7.43,1,1,0,0,0-.51-.13Z"/><path id="路径_455" data-name="路径 455" class="cls-15" d="M251.18,492.11a.58.58,0,0,1-.6-.57.63.63,0,0,1,.11-.35L271.82,461a.64.64,0,0,1,.49-.25h.18a.6.6,0,0,1,.41.58,32.51,32.51,0,0,1-2.32,11.85c-3.34,8.19-10,14.71-19.15,18.86a.52.52,0,0,1-.25,0"/><path id="路径_456" data-name="路径 456" class="cls-4" d="M272.3,461.35A31.44,31.44,0,0,1,270,473c-3.37,8.32-10.1,14.62-18.84,18.56l21.12-30.14m0-1.19h-.09a1.21,1.21,0,0,0-.59.22,1,1,0,0,0-.22.2l-.08.1-21.1,30.14a1.19,1.19,0,0,0,.3,1.65,1.16,1.16,0,0,0,1.15.11c9.36-4.21,16.07-10.84,19.45-19.18a32.87,32.87,0,0,0,2.36-11.91v-.18a1.16,1.16,0,0,0-1.14-1.18h0Z"/><path id="路径_457" data-name="路径 457" class="cls-15" d="M153.88,447.35a.58.58,0,0,1-.45-.44,33.73,33.73,0,0,1,1.33-20.68c4.41-10.87,14.55-18.7,28.49-22h.14a.6.6,0,0,1,.6.58.61.61,0,0,1-.11.35l-29.39,42a.64.64,0,0,1-.49.25Z"/><path id="路径_458" data-name="路径 458" class="cls-4" d="M183.38,404.81,154,446.8a33.22,33.22,0,0,1,1.31-20.31c4.49-11.07,14.88-18.52,28.06-21.65m0-1.18h-.3C168.94,407,158.69,415,154.21,426a34.22,34.22,0,0,0-1.38,21,1.19,1.19,0,0,0,.93.9H154a1.22,1.22,0,0,0,1-.5l29.32-41.88a1.15,1.15,0,0,0,.29-.77,1.17,1.17,0,0,0-1.17-1.18Z"/><path id="路径_459" data-name="路径 459" class="cls-15" d="M217.1,496.24a85.78,85.78,0,0,1-15.27-3.5.61.61,0,0,1-.37-.38.57.57,0,0,1,.08-.52L250.45,422a.6.6,0,0,1,.41-.24h.08a.65.65,0,0,1,.38.13,71.13,71.13,0,0,1,10.39,10.5.59.59,0,0,1,0,.71L217.64,496a.54.54,0,0,1-.48.26Z"/><path id="路径_460" data-name="路径 460" class="cls-4" d="M250.94,422.31a69.84,69.84,0,0,1,10.31,10.39l-44.07,63A83.94,83.94,0,0,1,202,492.17Zm0-1.19h-.15a1.21,1.21,0,0,0-.81.5L201.05,491.5a1.16,1.16,0,0,0,.61,1.78A85.2,85.2,0,0,0,217,496.81h.16a1.18,1.18,0,0,0,1-.5l44.07-62.94a1.16,1.16,0,0,0,0-1.41,71.85,71.85,0,0,0-10.57-10.57,1.18,1.18,0,0,0-.74-.27Z"/></g></g></g><g id="组_94" data-name="组 94"><g class="cls-2"><g id="组_93" data-name="组 93"><path id="路径_462" data-name="路径 462" class="cls-21" d="M347.48,353.5a3.52,3.52,0,1,1,1.85-.53,3.52,3.52,0,0,1-1.85.53"/><path id="路径_463" data-name="路径 463" class="cls-4" d="M347.48,347a3.06,3.06,0,1,1-3,3.12,3,3,0,0,1,3-3.1m0-1a3.53,3.53,0,1,0,1.55-4.75A3.53,3.53,0,0,0,347.5,346Z"/><path id="路径_464" data-name="路径 464" class="cls-22" d="M347.49,353.5a3.51,3.51,0,0,1-2-.63,3.34,3.34,0,0,1,1.42-3.8,3.47,3.47,0,0,1,3.83.1,3.35,3.35,0,0,1-1.41,3.8,3.64,3.64,0,0,1-1.84.53"/><path id="路径_465" data-name="路径 465" class="cls-4" d="M348.75,349a1.8,1.8,0,1,1,.87,3.49,2,2,0,0,1-.54.05,3,3,0,0,1-1.59.46,1.8,1.8,0,0,1-.87-3.5,2,2,0,0,1,.54,0,3.06,3.06,0,0,1,1.59-.45m0-.95a4.11,4.11,0,0,0-2.08.59,4,4,0,0,0-1.84,3.95,1,1,0,0,0,.4.65,4,4,0,0,0,6.24-3.84.93.93,0,0,0-.39-.64,3.94,3.94,0,0,0-2.27-.71Z"/><path id="路径_466" data-name="路径 466" class="cls-4" d="M182.63,194.94a55.28,55.28,0,1,1-55.28,55.28,55.28,55.28,0,0,1,55.28-55.28h0"/><path id="路径_467" data-name="路径 467" class="cls-4" d="M182.63,195.92a54.31,54.31,0,1,1-54.3,54.31h0a54.3,54.3,0,0,1,54.3-54.3m0-1.95a56.26,56.26,0,1,0,.09,0Z"/><path id="路径_468" data-name="路径 468" class="cls-23" d="M180.5,189.61a55.28,55.28,0,1,1-55.28,55.28,55.28,55.28,0,0,1,55.28-55.28h0"/><path id="路径_469" data-name="路径 469" class="cls-4" d="M180.5,190.62a54.31,54.31,0,1,1-54.31,54.31h0a54.3,54.3,0,0,1,54.3-54.3Zm0-1.94a56.25,56.25,0,1,0,56.29,56.24,56.24,56.24,0,0,0-56.29-56.24h0"/><path id="路径_470" data-name="路径 470" class="cls-24" d="M180.5,199.2a45.69,45.69,0,1,1-45.7,45.69h0a45.7,45.7,0,0,1,45.7-45.69"/><path id="路径_471" data-name="路径 471" class="cls-4" d="M180.5,200.17a44.73,44.73,0,1,1-44.72,44.74v0a44.72,44.72,0,0,1,44.72-44.72m0-1.94a46.67,46.67,0,1,0,46.66,46.67h0a46.7,46.7,0,0,0-46.66-46.65"/><path id="路径_472" data-name="路径 472" class="cls-7" d="M180.5,208.78a36.12,36.12,0,1,1-36.12,36.11h0a36.12,36.12,0,0,1,36.12-36.11"/><path id="路径_473" data-name="路径 473" class="cls-4" d="M180.5,209.76a35.14,35.14,0,1,1-35.11,35.18h0v0a35.13,35.13,0,0,1,35.13-35.13m0-1.95a37.09,37.09,0,1,0,37.09,37.09h0A37.13,37.13,0,0,0,180.52,207.81Z"/><path id="路径_474" data-name="路径 474" class="cls-4" d="M180.5,214.11a30.78,30.78,0,1,1-30.78,30.79h0a30.78,30.78,0,0,1,30.78-30.78"/><path id="路径_475" data-name="路径 475" class="cls-4" d="M180.5,215.08A29.86,29.86,0,1,1,150.69,245v0a29.84,29.84,0,0,1,29.81-29.86m0-1.94a31.76,31.76,0,1,0,31.75,31.77h0v0A31.79,31.79,0,0,0,180.5,213.14Z"/><path id="路径_476" data-name="路径 476" class="cls-4" d="M195.53,230.72a9.47,9.47,0,0,1,8.1,4.5c3.73,6,1.39,14.6-1,20.47a10.76,10.76,0,0,1-9.92,6.6H192c-6.33-.43-15-2.16-18.77-8.22a9.51,9.51,0,0,1,12.65-13.35h.07a.13.13,0,0,0,.14-.13h0a9.5,9.5,0,0,1,9.15-9.85h.35m0-1.95h0A11.47,11.47,0,0,0,184.31,238a11.45,11.45,0,0,0-12.79,17.06c4.14,6.7,13.32,8.66,20.3,9.13h.86a12.67,12.67,0,0,0,11.7-7.8c2.7-6.45,5.05-15.55.91-22.23a11.4,11.4,0,0,0-9.75-5.44Z"/><path id="路径_477" data-name="路径 477" class="cls-4" d="M304.14,131.24a55.28,55.28,0,1,1-55.28,55.28,55.28,55.28,0,0,1,55.28-55.28h0"/><path id="路径_478" data-name="路径 478" class="cls-4" d="M304.14,132.21a54.31,54.31,0,1,1-54.3,54.32h0a54.31,54.31,0,0,1,54.3-54.31h0m0-2a64.78,64.78,0,1,0,.08,0h-.08Z"/><path id="路径_479" data-name="路径 479" class="cls-23" d="M302,125.91a55.28,55.28,0,1,1-55.28,55.28A55.28,55.28,0,0,1,302,125.91h0"/><path id="路径_480" data-name="路径 480" class="cls-4" d="M302,126.92a54.31,54.31,0,1,1-54.31,54.31h0a54.3,54.3,0,0,1,54.3-54.3h0Zm0-1.94a56.25,56.25,0,1,0,56.29,56.24A56.24,56.24,0,0,0,302,125h0"/><path id="路径_481" data-name="路径 481" class="cls-24" d="M302,135.5a45.69,45.69,0,1,1-45.7,45.69h0A45.69,45.69,0,0,1,302,135.5"/><path id="路径_482" data-name="路径 482" class="cls-4" d="M302,136.47a44.73,44.73,0,1,1-44.72,44.74v0A44.72,44.72,0,0,1,302,136.47m0-1.94a46.67,46.67,0,1,0,46.66,46.67h0A46.71,46.71,0,0,0,302,134.53"/><path id="路径_483" data-name="路径 483" class="cls-7" d="M302,145.07a36.12,36.12,0,1,1-36.12,36.11h0A36.12,36.12,0,0,1,302,145.07"/><path id="路径_484" data-name="路径 484" class="cls-4" d="M302,146.05a35.15,35.15,0,1,1-35.11,35.18v0A35.13,35.13,0,0,1,302,146.06m0-1.95a37.09,37.09,0,1,0,37.09,37.09h0A37.13,37.13,0,0,0,302,144.11Z"/><path id="路径_485" data-name="路径 485" class="cls-4" d="M302,150.4a30.79,30.79,0,1,1-30.79,30.79A30.79,30.79,0,0,1,302,150.4"/><path id="路径_486" data-name="路径 486" class="cls-4" d="M302,151.38a29.85,29.85,0,1,1-29.81,29.9v-.05A29.85,29.85,0,0,1,302,151.38m0-1.94a31.76,31.76,0,1,0,31.75,31.77h0A31.8,31.8,0,0,0,302,149.43"/><path id="路径_487" data-name="路径 487" class="cls-4" d="M317,167a9.49,9.49,0,0,1,8.1,4.5c3.73,6,1.39,14.6-1.05,20.47a10.74,10.74,0,0,1-9.92,6.6h-.71c-6.33-.42-15-2.16-18.77-8.21A9.51,9.51,0,0,1,307.35,177h.06a.14.14,0,0,0,.14-.14h0a9.51,9.51,0,0,1,9.16-9.85h.34m0-1.94h0a11.45,11.45,0,0,0-11.22,9.25,11.44,11.44,0,0,0-12.8,17c4.15,6.7,13.33,8.66,20.3,9.13h.86a12.65,12.65,0,0,0,11.7-7.8c2.7-6.45,5.05-15.55.91-22.23a11.37,11.37,0,0,0-9.75-5.43Z"/><path id="路径_488" data-name="路径 488" class="cls-21" d="M379.67,370.2c-22.4,0-39.55-7.4-48.31-20.86L319.43,331a1.18,1.18,0,0,1,.34-1.64L325,326c0-32.22,29.45-73,73.4-101.65,30.83-20.08,64.7-31.61,92.93-31.61,11.44,0,21.38,1.87,29.72,5.53l5.2-3.38a1.13,1.13,0,0,1,.64-.2,1,1,0,0,1,.25,0,1.15,1.15,0,0,1,.74.51l11.93,18.3c10,15.37,8.47,36.88-4.33,60.58-12.69,23.47-35,46.34-62.69,64.44-30.9,20.12-64.81,31.66-93.08,31.66"/><path id="路径_489" data-name="路径 489" class="cls-4" d="M491.31,193.94c11.3,0,21.44,1.88,29.81,5.69l5.74-3.73,11.93,18.3c20.18,31-9.67,86.2-66.68,123.35C440.24,358.34,406.63,369,379.66,369c-21.28,0-38.46-6.66-47.31-20.33l-11.94-18.3,5.74-3.73c-.34-31.09,27.67-71.85,72.87-101.3C430.85,204.63,464.38,194,491.31,194m0-2.36h0c-28.46,0-62.57,11.59-93.55,31.79-44,28.66-73.5,69.46-73.93,102l-4.66,3.05a2.33,2.33,0,0,0-1,1.48,2.4,2.4,0,0,0,.33,1.79L330.39,350c9,13.8,26.5,21.4,49.3,21.4,28.5,0,62.67-11.61,93.74-31.86,27.9-18.16,50.3-41.2,63.08-64.83,13-24.1,14.55-46,4.29-61.78l-11.93-18.3a2.4,2.4,0,0,0-3.27-.66l-4.67,3c-8.31-3.57-18.31-5.38-29.59-5.38Z"/><path id="路径_490" data-name="路径 490" class="cls-4" d="M544.61,243.82l-30.44-46.77c-1.13-.34-2.26-.67-3.43-1l33.33,51.16c.21-1.12.4-2.28.54-3.44"/><path id="路径_491" data-name="路径 491" class="cls-4" d="M496.08,195l43.65,67.05c.37-.91.7-1.83,1-2.74l-42.36-65.08c-.82-.06-1.63-.15-2.47-.2a1.18,1.18,0,0,0,.14,1"/><path id="路径_492" data-name="路径 492" class="cls-4" d="M486.65,199.72a1.2,1.2,0,0,0-.34,1.64l47.6,73.06c.44-.79.85-1.58,1.27-2.37l-46.9-72a1.19,1.19,0,0,0-1.63-.35"/><path id="路径_493" data-name="路径 493" class="cls-4" d="M476.88,206.09a1.18,1.18,0,0,0-.33,1.63h0l50.59,77.65c.49-.7,1-1.41,1.42-2.13l-50-76.81a1.19,1.19,0,0,0-1.64-.34h0"/><path id="路径_494" data-name="路径 494" class="cls-4" d="M467.12,212.45a1.18,1.18,0,0,0-.36,1.61l0,0,52.93,81.25c.53-.65,1-1.3,1.55-1.95l-52.5-80.58a1.17,1.17,0,0,0-1.63-.35h0"/><path id="路径_495" data-name="路径 495" class="cls-4" d="M457.35,218.81a1.2,1.2,0,0,0-.34,1.64l54.74,84c.56-.59,1.12-1.19,1.66-1.78L459,219.18a1.17,1.17,0,0,0-1.62-.37h0"/><path id="路径_496" data-name="路径 496" class="cls-4" d="M447.58,225.17a1.18,1.18,0,0,0-.33,1.63h0l56.13,86.13c.57-.55,1.16-1,1.73-1.65l-55.89-85.77a1.18,1.18,0,0,0-1.63-.35h0"/><path id="路径_497" data-name="路径 497" class="cls-4" d="M437.82,231.54a1.19,1.19,0,0,0-.34,1.63l57.1,87.65,1.81-1.54-56.93-87.4a1.2,1.2,0,0,0-1.64-.34"/><path id="路径_498" data-name="路径 498" class="cls-4" d="M428.07,237.89a1.17,1.17,0,0,0-.36,1.62h0v0l57.73,88.61c.62-.48,1.27-.95,1.88-1.43L429.7,238.25a1.18,1.18,0,0,0-1.63-.36"/><path id="路径_499" data-name="路径 499" class="cls-4" d="M418.29,244.26a1.19,1.19,0,0,0-.34,1.64h0l58,89,2-1.33-58-89a1.17,1.17,0,0,0-1.62-.36h0"/><path id="路径_500" data-name="路径 500" class="cls-4" d="M408.52,250.62a1.2,1.2,0,0,0-.34,1.64l58,88.95,2-1.24-58-89a1.21,1.21,0,0,0-1.65-.35"/><path id="路径_501" data-name="路径 501" class="cls-4" d="M398.76,257a1.19,1.19,0,0,0-.34,1.64h0L456,347l2.08-1.12-57.7-88.57a1.19,1.19,0,0,0-1.63-.35"/><path id="路径_502" data-name="路径 502" class="cls-4" d="M389,263.35a1.18,1.18,0,0,0-.34,1.63h0l56.9,87.31c.72-.33,1.43-.65,2.16-1l-57.08-87.61a1.18,1.18,0,0,0-1.64-.29"/><path id="路径_503" data-name="路径 503" class="cls-4" d="M379.22,269.71a1.19,1.19,0,0,0-.34,1.63l55.84,85.71,2.23-.89-56.13-86.1a1.18,1.18,0,0,0-1.6-.34"/><path id="路径_504" data-name="路径 504" class="cls-4" d="M369.46,276.07a1.18,1.18,0,0,0-.36,1.61l0,0,54.37,83.46c.77-.25,1.54-.5,2.32-.77l-54.71-84a1.18,1.18,0,0,0-1.63-.35h0"/><path id="路径_505" data-name="路径 505" class="cls-4" d="M359.75,282.43a1.17,1.17,0,0,0-.34,1.63h0l52.46,80.53c.8-.2,1.6-.42,2.4-.64l-52.88-81.18a1.2,1.2,0,0,0-1.64-.35"/><path id="路径_506" data-name="路径 506" class="cls-4" d="M349.93,288.82a1.16,1.16,0,0,0-.36,1.6l0,0,50,76.79c.82-.14,1.66-.32,2.49-.48l-50.54-77.6a1.2,1.2,0,0,0-1.64-.34"/><path id="路径_507" data-name="路径 507" class="cls-4" d="M340.16,295.16a1.18,1.18,0,0,0-.34,1.63l46.87,71.94c.9-.06,1.78-.1,2.7-.18L341.8,295.5a1.19,1.19,0,0,0-1.64-.34"/><path id="路径_508" data-name="路径 508" class="cls-4" d="M375.67,368.85l-43.65-67a1.24,1.24,0,0,0-.79-.51c-.3.79-.56,1.56-.84,2.34l42.35,65c1,.07,1.95.16,2.93.16"/><path id="路径_509" data-name="路径 509" class="cls-4" d="M360.44,366.84l-33.26-51.1c-.22,1.18-.38,2.36-.53,3.52L357,365.89c1.1.34,2.25.66,3.41.94"/><path id="路径_510" data-name="路径 510" class="cls-23" d="M365.22,348.06c-22.38,0-39.5-7.41-48.31-20.86-10-15.36-8.47-36.88,4.34-60.57,12.69-23.47,34.94-46.34,62.68-64.45,30.89-20.12,64.83-31.67,93.09-31.67,22.39,0,39.55,7.42,48.32,20.88,10,15.36,8.46,36.87-4.35,60.57-12.69,23.47-34.94,46.35-62.68,64.44-30.89,20.09-64.83,31.66-93.09,31.66"/><path id="路径_511" data-name="路径 511" class="cls-4" d="M477,171.7c21.28,0,38.46,6.67,47.32,20.33,20.19,31-9.66,86.21-66.67,123.34-31.87,20.79-65.48,31.49-92.45,31.49-21.27,0-38.45-6.68-47.32-20.33-20.18-31,9.67-86.21,66.68-123.35,31.86-20.79,65.48-31.48,92.44-31.48m0-2.36c-28.49,0-62.65,11.61-93.73,31.86-27.9,18.18-50.3,41.2-63.08,64.83-13,24.1-14.55,46-4.29,61.78,9,13.8,26.5,21.4,49.3,21.4,28.49,0,62.66-11.61,93.74-31.85,58-37.79,88.23-94.59,67.37-126.62-9-13.8-26.5-21.4-49.31-21.4"/><path id="路径_512" data-name="路径 512" class="cls-21" d="M372.34,332c-17.67,0-31.1-5.76-37.9-16.21-16.4-25.18,9.14-71,56.94-102.13,26.35-17.18,55-27,78.52-27,17.67,0,31.1,5.76,37.91,16.22,16.4,25.17-9.14,71-56.94,102.13-26.36,17.17-55,27-78.53,27"/><path id="路径_513" data-name="路径 513" class="cls-4" d="M469.92,187.78c16.71,0,30.05,5.12,36.92,15.67,16.07,24.67-9.27,69.64-56.6,100.5-27.1,17.67-55.51,26.83-77.88,26.83-16.71,0-30.05-5.13-36.92-15.68-16.06-24.66,9.28-69.63,56.6-100.5,27.1-17.67,55.51-26.82,77.88-26.82m0-2.37c-23.76,0-52.62,9.92-79.17,27.22-23.2,15.11-42,34.07-52.84,53.37-11.14,19.75-12.72,37.69-4.44,50.39,7,10.8,20.85,16.76,38.89,16.76,23.76,0,52.63-9.93,79.17-27.23,23.2-15.11,42-34.07,52.85-53.37,11.14-19.75,12.72-37.69,4.43-50.39-7-10.8-20.78-16.75-38.89-16.75"/><path id="路径_514" data-name="路径 514" class="cls-23" d="M372.44,331.93c-14.55,0-26.15-3.82-33.66-11.05a1.2,1.2,0,0,1-.29-.45c-9.61-26.26,16.13-67.56,59.88-96.07,26.32-17.16,54.92-27,78.44-27,14.55,0,26.15,3.82,33.66,11a1.31,1.31,0,0,1,.28.45c9.61,26.26-16.12,67.56-59.88,96.08-26.33,17.17-54.91,27-78.43,27"/><path id="路径_515" data-name="路径 515" class="cls-4" d="M476.81,198.56c13.84,0,25.36,3.51,32.83,10.7,9.35,25.46-15.59,66.13-59.41,94.69-27,17.67-55.46,26.8-77.79,26.8-13.85,0-25.37-3.51-32.84-10.71-9.35-25.45,15.59-66.13,59.43-94.68,27-17.67,55.44-26.8,77.78-26.8m0-2.37h0c-23.74,0-52.57,9.9-79.08,27.18-44.21,28.8-70.15,70.67-60.34,97.48a2.16,2.16,0,0,0,.57.88c7.73,7.45,19.65,11.37,34.48,11.37,23.74,0,52.56-9.9,79.08-27.18,44.2-28.79,70.14-70.67,60.34-97.47a2.29,2.29,0,0,0-.58-.89c-7.72-7.44-19.63-11.37-34.47-11.37"/><path id="路径_516" data-name="路径 516" class="cls-4" d="M189,345.09c-22.65,0-36.32-20.54-36.45-20.79a1.18,1.18,0,1,1,2-1.29c.14.21,13.71,20.58,35.89,19.66L195.52,328a16.87,16.87,0,0,1-9.8-.22c-6.23-2.08-11.5-7.62-15.67-16.57a1.19,1.19,0,0,1,2.15-1c3.87,8.31,8.65,13.45,14.22,15.3a14.16,14.16,0,0,0,10.49-.57,1.19,1.19,0,0,1,1.6.5,1.15,1.15,0,0,1,.08.94l-6.24,17.83a1.17,1.17,0,0,1-1,.79,22.29,22.29,0,0,1-2.3.12"/><path id="路径_517" data-name="路径 517" class="cls-7" d="M199.05,359.93c-8.67,0-12.26-4.16-13.74-7.6-4.44-10.39,3.43-28.18,9-34a10.53,10.53,0,0,1,7.71-3.7c5,0,8.75,4.16,8.91,4.3l.41.46-10,40.54-2.34.05"/><path id="路径_518" data-name="路径 518" class="cls-4" d="M202,315.78c4.56,0,8,3.9,8,3.9l-9.6,39h-1.4c-23.91,0-11.18-32-3.87-39.65a9.33,9.33,0,0,1,6.86-3.32m0-2.36a11.72,11.72,0,0,0-8.58,4.05c-5.76,6.06-13.86,24.53-9.24,35.34,1.63,3.78,5.51,8.32,14.83,8.32h1.51l1.76-.1.43-1.7,9.6-39,.3-1.2-.82-.93c-.18-.2-4.23-4.69-9.79-4.69Z"/><path id="路径_519" data-name="路径 519" class="cls-25" d="M207.86,317.8c-8,8.5-17,22.8-11.19,40.78a23.85,23.85,0,0,0,3.78.13l9.62-39a14.18,14.18,0,0,0-2.21-1.88"/><path id="路径_520" data-name="路径 520" class="cls-7" d="M231.17,383.21c-12.68,0-23.5-10.39-23.91-10.86-7.51-10.94-10.13-21.83-7.95-32.53,3.72-18.13,19.84-29.6,22.59-31.44l7.7-25.62a11.28,11.28,0,0,1,10.62-8.09,10.31,10.31,0,0,1,2.41.28c10.09,2.34,17.24,12.06,17,23.1-.22,10.4-10.67,17.67-17.3,21.2h1.21c9.29,0,25,.82,46.77,4.71,24.21,4.3,27.71,14.71,28.07,19a12.59,12.59,0,0,1-8.11,12.7,14.14,14.14,0,0,1-4.83.66c-10,0-28.64-5.5-39.78-9.11a10.3,10.3,0,0,1,2.76,7.35c-.24,6.87-7.12,13.21-10.79,14.37a12,12,0,0,1-3.48.48,20.49,20.49,0,0,1-3.32-.3l1.35.84-.7,1c-5.52,8.14-12.37,12.27-20.36,12.27Z"/><path id="路径_521" data-name="路径 521" class="cls-4" d="M240.22,275.86a9.62,9.62,0,0,1,2.14.24c9.2,2.14,16.32,11.17,16.08,21.93-.31,14.33-21.83,22.6-21.83,22.6s2.36-.21,6.95-.21c8.37,0,24.2.7,46.57,4.69,34.57,6.16,29.95,25.64,19.75,29.4a13,13,0,0,1-4.42.6C290.91,355.11,257,343,257,343c19.75,7.79,5.85,23,.29,24.78a10.6,10.6,0,0,1-3.12.44c-5.35,0-11.72-2.93-11.72-2.93l8.07,5c-6,8.85-12.91,11.75-19.38,11.75C218.82,382,208,371.5,208,371.5c-25.21-36.88,14.82-62.36,14.82-62.36l7.83-26a10.1,10.1,0,0,1,9.54-7.28m0-2.37a12.48,12.48,0,0,0-11.8,8.93l-7.58,25.22c-3.65,2.5-19.06,14.07-22.73,31.94-2.26,11,.42,22.23,8,33.26l.12.2.17.16c.47.46,11.62,11.2,24.78,11.2,8.41,0,15.59-4.3,21.34-12.8l.73-1h1a12.84,12.84,0,0,0,3.85-.54c4.46-1.42,11.36-8.32,11.61-15.47a11.22,11.22,0,0,0-1-5.2c11.32,3.56,27.66,8.15,36.91,8.15a15.56,15.56,0,0,0,5.2-.74,13.81,13.81,0,0,0,8.89-13.94c-.41-4.54-4.06-15.59-29.1-20a282.5,282.5,0,0,0-43.89-4.7c6.46-4.15,14-10.88,14.18-20,.25-11.6-7.28-21.83-17.91-24.28a11.55,11.55,0,0,0-2.68-.32Z"/><path id="路径_522" data-name="路径 522" class="cls-26" d="M249.49,290.64c-.32,14.34-21.83,22.6-21.83,22.6s7.35-.64,21.24.36c4.9-3.8,9.42-9.06,9.57-15.6a22,22,0,0,0-13.06-20.89,22.84,22.84,0,0,1,4.08,13.52"/><path id="路径_523" data-name="路径 523" class="cls-26" d="M306.2,330.09a11.27,11.27,0,0,1-2.7,15.69,11.51,11.51,0,0,1-2.57,1.36c-10.16,3.76-54.76-11.32-54.76-11.32,5.35,2.08,10.07,4.55,11.32,7.34,4.55,1.6,42.85,14.9,52.41,11.36,8.16-3,12.7-16.18-3.7-24.43"/><path id="路径_524" data-name="路径 524" class="cls-26" d="M257.52,343.22c3.29,7.48-5.11,15.88-9.17,17.17-5.57,1.77-14.85-2.5-14.85-2.5l8.08,5c-11.24,16.63-25.64,12.3-34.47,7.15.31.49.59,1,.93,1.47,0,0,25.07,24.48,42.51-1.23l-8.08-5s9.28,4.26,14.85,2.49,19.18-16.7.2-24.55"/><path id="路径_525" data-name="路径 525" class="cls-7" d="M438.29,220.5a6.63,6.63,0,0,1-2.29-.38,15.27,15.27,0,0,1-8.9-8.22A13.89,13.89,0,0,1,427,201c2.73-6.39,9.41-21.55,9.41-21.55a14.52,14.52,0,0,1,10-4.4c5.2,0,9.89,3.29,13.93,9.74,3.67,5.86,3.59,12.6-.24,19.5-5.12,9.26-15.74,16.19-21.81,16.19"/><path id="路径_526" data-name="路径 526" class="cls-4" d="M446.41,176.26c3.85,0,8.47,2.08,12.94,9.19,9.75,15.59-11.59,33.86-21.06,33.86a5,5,0,0,1-1.87-.3c-8.05-3-11-11.14-8.31-17.53S437.46,180,437.46,180a14,14,0,0,1,8.88-3.69m0-2.36h0a16.28,16.28,0,0,0-10.54,4.37l-.32.32-.18.4s-6.69,15.17-9.42,21.56a15.15,15.15,0,0,0,.06,11.82,16.51,16.51,0,0,0,9.68,8.89,7.72,7.72,0,0,0,2.69.45c7.23,0,17.9-7.84,22.87-16.8,4-7.19,4.05-14.55.21-20.69-4.29-6.83-9.3-10.29-14.95-10.29Z"/><path id="路径_527" data-name="路径 527" class="cls-26" d="M440,200.89c2.73-6.38,2-19.6,2-19.6L437.53,180s-6.68,15.15-9.35,21.53.24,14.55,8.31,17.53c1.77.66,4.38.17,7.28-1.1-6.4-3.56-6.2-11.27-3.74-17"/><path id="路径_528" data-name="路径 528" class="cls-7" d="M427.31,207.26c-6,0-10.18-4.73-10.35-4.93-.58-.73-13.88-17.24-12-29.27a14.82,14.82,0,0,1,15-12.87,17.26,17.26,0,0,1,9.6,2.91c5.51,3.64,12.05,12.66,13.34,22.2a19.53,19.53,0,0,1-4.39,15.92c-3.49,4-7.27,6-11.23,6Z"/><path id="路径_529" data-name="路径 529" class="cls-4" d="M420,161.37a16.32,16.32,0,0,1,9,2.71c8.48,5.62,19.14,24.38,8.7,36.38-3.71,4.25-7.28,5.62-10.39,5.62-5.56,0-9.45-4.52-9.45-4.52s-13.51-16.63-11.69-28.3A13.5,13.5,0,0,1,420,161.37m0-2.36a16,16,0,0,0-16.16,13.86c-2,12.55,11.61,29.46,12.19,30.14.23.27,4.71,5.4,11.28,5.4,4.32,0,8.41-2.17,12.13-6.45a20.65,20.65,0,0,0,4.67-16.85c-1.34-9.89-8.14-19.24-13.85-23A18.55,18.55,0,0,0,420,159Z"/><path id="路径_530" data-name="路径 530" class="cls-26" d="M425,195s-9.29-11.43-11.44-22a11.56,11.56,0,0,1-5.94-4.07,14.52,14.52,0,0,0-1.42,4.35c-1.84,11.63,11.71,28.26,11.71,28.26s9.35,10.88,19.8-1.1a21.28,21.28,0,0,0,1.56-2.08C431.24,202.26,425,195,425,195"/><path id="路径_531" data-name="路径 531" class="cls-7" d="M358.57,218.39c-.37-.41-9-9.87-6.63-17.42,1.16-3.69,4.69-6.24,10.47-7.48a16,16,0,0,1,2.08-.11c3.55,0,12.3.84,16.71,8.6l.53.93-22.45,16.27Z"/><path id="路径_532" data-name="路径 532" class="cls-4" d="M364.48,194.56c3.6,0,11.63.86,15.68,8l-20.73,15s-17.1-18.49,3.23-22.93c.6-.06,1.21-.09,1.82-.09m0-2.35a18,18,0,0,0-2.08.09c-6.45,1.4-10.27,4.16-11.57,8.31-2.52,8.07,5.9,17.53,6.84,18.57l1.42,1.54,1.7-1.23,20.78-15,1.7-1.25-1-1.84c-4.71-8.31-14-9.18-17.74-9.18Z"/><path id="路径_533" data-name="路径 533" class="cls-26" d="M378.33,200.05l-20.66,15s-.53-.58-1.28-1.53a34.79,34.79,0,0,0,3.12,4l20.65-15a14.45,14.45,0,0,0-1.83-2.5"/><path id="路径_534" data-name="路径 534" class="cls-7" d="M407.43,210.61c-10.63,0-16.5-13.6-16.75-14.16l-.14-.35.08-.36a9.37,9.37,0,0,0,.16-2.59,12.33,12.33,0,0,1-1.89,4.31l-6.68,5.09-.71-1c-13.13-18.66-5.3-25.78,2.27-32.66a14.86,14.86,0,0,1,10.28-3.62c8.31,0,17.47,5.2,23.29,13.2,8.68,12,3.3,24.95,3.06,25.51-4.53,4.56-8.81,6.67-13,6.67"/><path id="路径_535" data-name="路径 535" class="cls-4" d="M394.05,166.41c7.66,0,16.63,4.84,22.33,12.72,8.39,11.57,2.94,24.35,2.94,24.35-4.43,4.34-8.39,6-11.85,6-10,0-15.66-13.45-15.66-13.45,1.31-6.31-3.64-11.11-3.64-11.11,4.16,5.78-.2,11.91-.2,11.91l-5.47,4.16c-12.26-17.43-5.88-23.85,2.09-31.1a13.75,13.75,0,0,1,9.45-3.39m0-2.36a16.11,16.11,0,0,0-11.05,4c-9.16,8.32-15.16,16.14-2.43,34.22l1.4,2,2-1.47,5.47-4.16.29-.22.21-.29.18-.28c1.62,3.34,7.57,13.93,17.39,13.93,4.48,0,9-2.24,13.51-6.63l.34-.33.18-.43c.24-.57,5.88-14.16-3.2-26.67-6-8.32-15.59-13.69-24.23-13.69Z"/><path id="路径_536" data-name="路径 536" class="cls-26" d="M387.93,190.33h0a6.22,6.22,0,0,1-8.74-1.12h0a6.38,6.38,0,0,1-.61-1,27.06,27.06,0,0,1-2.63-6.95c-1.16,4.73.24,10.74,6.47,19.6l5.47-4.16s3.24-4.56,1.45-9.53a14,14,0,0,1-1.4,3.11"/><path id="路径_537" data-name="路径 537" class="cls-26" d="M389.58,186.64a12.21,12.21,0,0,1,2.19,9.36s10.31,24.38,27.51,7.5a27.74,27.74,0,0,0,1.54-12.86v.12a13.77,13.77,0,0,1-6.72,10.33c-14.06,8-23.25-12.22-23.25-12.22Z"/><path id="路径_538" data-name="路径 538" class="cls-22" d="M197.32,256.69a13.92,13.92,0,1,1,7.33-2.08,13.92,13.92,0,0,1-7.33,2.08"/><path id="路径_539" data-name="路径 539" class="cls-4" d="M197.33,230a12.74,12.74,0,1,1-6.7,1.91,12.74,12.74,0,0,1,6.7-1.91m0-2.37h0a15.12,15.12,0,1,0,12.84,7.15,15.1,15.1,0,0,0-12.84-7.15"/><path id="路径_540" data-name="路径 540" class="cls-24" d="M197.32,252.34a9.56,9.56,0,1,1,5-1.43,9.58,9.58,0,0,1-5,1.43"/><path id="路径_541" data-name="路径 541" class="cls-4" d="M197.33,233.67a9.09,9.09,0,1,1-4.8,1.36,9.09,9.09,0,0,1,4.8-1.36m0-.95h0a10,10,0,1,0,8.54,4.75,10.05,10.05,0,0,0-8.54-4.75"/><path id="路径_542" data-name="路径 542" class="cls-22" d="M313.24,204.65a13.93,13.93,0,1,1,7.33-2.08,13.92,13.92,0,0,1-7.33,2.08"/><path id="路径_543" data-name="路径 543" class="cls-4" d="M313.24,178a12.74,12.74,0,1,1-6.7,1.91,12.74,12.74,0,0,1,6.7-1.91m0-2.37h0a15.09,15.09,0,1,0,12.85,7.15,15.1,15.1,0,0,0-12.85-7.15"/><path id="路径_544" data-name="路径 544" class="cls-24" d="M313.24,200.3a9.57,9.57,0,1,1,5-1.43,9.58,9.58,0,0,1-5,1.43"/><path id="路径_545" data-name="路径 545" class="cls-4" d="M313.24,181.62a9.12,9.12,0,1,1-4.79,1.37,9.11,9.11,0,0,1,4.79-1.37m0-.94h0a10,10,0,1,0,8.55,4.75,10,10,0,0,0-8.55-4.75"/><path id="路径_546" data-name="路径 546" class="cls-7" d="M442.85,233.05l-9.05-7-6.65,4.69,8.27,7.52Z"/><path id="路径_547" data-name="路径 547" class="cls-7" d="M462.07,247.84l-13.23-10.18-7.94,5.6,12.09,11Z"/><path id="路径_548" data-name="路径 548" class="cls-7" d="M463.38,261.32l-7,5-37.65-37.6c-2.12-2.12-6-2.15-8.78-.19l-5.71,4,3.37,4.67,5.59-3.95,3.93,4.63-30.35,21.41,5.25,8.23,31.44-22.18,5.45,6.42-36.27,25.59,7.15,12.35,38.36-27.06L447.81,274c5.56,6.55,15,9.42,20.33,5.65l8.89-6.27Z"/></g></g></g></g></g></svg>