<?xml version="1.0" encoding="utf-8"?>
<!-- Generator: Adobe Illustrator 26.0.0, SVG Export Plug-In . SVG Version: 6.00 Build 0)  -->
<svg version="1.1" id="图层_1" xmlns="http://www.w3.org/2000/svg" xmlns:xlink="http://www.w3.org/1999/xlink" x="0px" y="0px"
	 viewBox="0 0 200 200" style="enable-background:new 0 0 200 200;" xml:space="preserve">
<style type="text/css">
	.st0{fill:#814BF6;}
</style>
<path class="st0" d="M185,118.7c-3.8-3.8-10-3.8-13.8,0l-11.5,11.5c-0.1,0.1-0.3,0-0.3-0.1V60.8c0-19-15.4-34.4-34.3-34.4
	c-17.3,0-31.5,12.7-34,29.3c0,0.1-0.1,0.2-0.2,0.2h0c-0.1,0-0.2,0.1-0.2,0.2v83.4c0,8.1-6.6,14.8-14.7,14.8
	c-8.1,0-14.7-6.6-14.7-14.8V46.2c0-0.1,0-0.2,0-0.3c0-2.5-1.4-5.5-3.2-7.4c-3.8-3.8-11.4-3.3-15.2,0.5L15.1,66.9
	c-3.8,3.8-3.8,10.1,0,13.9c3.8,3.8,10,3.8,13.9,0l12.4-12.4c0.1-0.1,0.3,0,0.3,0.1v70.9c0,19,15.4,34.4,34.4,34.4
	c17.2,0,31.5-12.7,34-29.3c0-0.1,0.1-0.2,0.2-0.2h0c0.1,0,0.2-0.1,0.2-0.2V60.8c0-8.1,6.6-14.8,14.7-14.8c8.1,0,14.7,6.6,14.7,14.8
	V154c0,0.1,0,0.6,0,0.7c0.2,2.1,1.2,4.8,2.8,6.5c3.8,3.8,11,2.9,14.8-1l27.6-27.7C188.8,128.7,188.8,122.5,185,118.7L185,118.7z"/>
</svg>
