<?xml version="1.0" encoding="utf-8"?>
<!-- Generator: Adobe Illustrator 26.0.0, SVG Export Plug-In . SVG Version: 6.00 Build 0)  -->
<svg version="1.1" id="图层_1" xmlns="http://www.w3.org/2000/svg" xmlns:xlink="http://www.w3.org/1999/xlink" x="0px" y="0px"
	 viewBox="0 0 154 42" style="enable-background:new 0 0 154 42;" xml:space="preserve">
<style type="text/css">
	.st0{fill:#0FBFFF;}
	.st1{fill:#A44CEF;}
	.st2{fill:#FFFFFF;}
</style>
<g>
	<g>
		<g>
			<path class="st0" d="M39.2,15.3c-0.7-1.7-1.8-3.2-3.1-4.6c-1.3-1.3-2.9-2.4-4.6-3.1c-1.8-0.7-3.6-1.1-5.6-1.1s-3.8,0.4-5.6,1.1
				c-1.7,0.7-3.2,1.8-4.6,3.1c-1.3,1.3-2.4,2.9-3.1,4.6c-0.7,1.8-1.1,3.6-1.1,5.6s0.4,3.8,1.1,5.6c0.7,1.7,1.8,3.2,3.1,4.6
				c1.3,1.3,2.9,2.4,4.6,3.1c1.8,0.7,3.6,1.1,5.6,1.1s3.8-0.4,5.6-1.1c1.7-0.7,3.2-1.8,4.6-3.1c0.1-0.1,0.2-0.2,0.3-0.3
				c0.1-0.1,0-0.2-0.1-0.2h-2.8c0,0,0,0-0.1,0c-2.5,1.9-5.6,2.9-8.8,2.6c-2.5-0.2-4.8-1.2-6.7-2.8c-2.9-2.5-4.5-6.1-4.4-9.9
				c0.1-2.9,1.2-5.6,3.1-7.7c2.9-3.2,7.1-4.7,11.5-3.9c1.6,0.3,3.1,0.9,4.4,1.8c3.5,2.4,5.5,6.2,5.5,10.3c0,0.8-0.1,1.5-0.2,2.3
				c-0.1,0.6-0.7,2.1-3,2.1c-2.8,0-4.8,0-5.1,0c-0.1,0-0.2,0-0.3-0.1c-0.2-0.1-0.4-0.2-0.6-0.4c-0.2-0.3-0.3-0.6-0.3-0.9
				c0-0.2,0.1-0.4,0.1-0.6c0.1-0.3,0.1-0.7,0.2-1c0-0.2,0.1-0.5,0.1-0.7c0-0.2,0.1-0.5,0.1-0.7c0.1-0.3,0.1-0.6,0.2-0.9
				c0-0.3,0.1-0.6,0.1-0.8c0-0.1,0-0.2,0.1-0.3c0-0.2,0.1-0.4,0.1-0.6c0-0.1,0-0.1,0.1-0.1c1,0,2.1,0,3.1,0c0.2,0,0.4-0.2,0.4-0.4
				c0-0.2,0-0.3,0.1-0.5c0-0.1,0-0.2,0-0.3c0-0.3,0.1-0.5,0.1-0.8c0-0.1,0-0.1-0.1-0.2c-0.1-0.1-0.2-0.1-0.3-0.1c-1.9,0-3.8,0-5.7,0
				c-2.4,0-4.8,0-7.1,0c-0.2,0-0.4,0-0.5,0.1c-0.4,0.1-0.7,0.3-1,0.6c-0.4,0.3-0.6,0.7-0.7,1.2c0,0.1,0,0.2-0.1,0.3
				c0,0.2-0.1,0.4-0.1,0.7c0,0.1,0,0.3-0.1,0.4c0,0.1,0,0.2-0.1,0.3c-0.1,0.2,0.1,0.4,0.3,0.4c0.6,0,1.2,0,1.8,0
				c0.1,0,0.2,0,0.2-0.1c0-0.1,0.1-0.2,0.1-0.3c0-0.2,0-0.3,0.1-0.5c0.1-0.4,0.5-0.7,0.9-0.7c0.4,0,0.7,0,1.1,0c0,0,0.1,0,0.1,0
				c-0.1,0.3-0.1,0.6-0.2,0.9c0,0.1,0,0.2-0.1,0.3c0,0.2-0.1,0.3-0.1,0.5c-0.1,0.3-0.1,0.6-0.1,0.8c-0.1,0.3-0.1,0.7-0.2,1
				c-0.1,0.3-0.1,0.6-0.2,0.9c0,0.2-0.1,0.5-0.1,0.7c0,0.2-0.1,0.5-0.1,0.7c-0.1,0.3-0.1,0.6-0.2,0.9c0,0.2-0.1,0.5-0.1,0.7
				C21.1,26,21,26.3,21,26.7c0,0.1,0,0.2,0,0.3c0,0.1-0.1,0.3-0.1,0.4c0,0.2,0.1,0.4,0.4,0.4c0.6,0,1.1,0,1.7,0c0,0,0.1,0,0.1,0
				c0.2-0.1,0.2-0.2,0.2-0.4c0-0.1,0-0.2,0.1-0.4c0-0.2,0.1-0.4,0.1-0.6c0-0.1,0.1-0.3,0.1-0.4c0-0.2,0.1-0.4,0.1-0.6
				c0-0.1,0-0.2,0.1-0.3c0-0.2,0.1-0.4,0.1-0.6c0-0.2,0.1-0.4,0.1-0.6c0-0.2,0.1-0.4,0.1-0.5c0-0.2,0.1-0.4,0.1-0.5
				c0-0.2,0.1-0.4,0.1-0.6c0-0.2,0.1-0.4,0.1-0.5c0-0.2,0.1-0.4,0.1-0.6c0-0.2,0.1-0.4,0.1-0.6c0.1-0.3,0.1-0.6,0.2-0.8
				c0-0.2,0.1-0.4,0.1-0.7c0-0.3,0.1-0.5,0.1-0.8c0-0.1,0-0.2,0.2-0.2c0.6,0,1.3,0,1.9,0c0.1,0,0.2,0,0.3,0c0,0,0.1,0,0.1,0.1
				c0,0.1-0.1,0.3-0.1,0.4c0,0.2-0.1,0.4-0.1,0.6c0,0.2-0.1,0.4-0.1,0.6c0,0.2-0.1,0.4-0.1,0.6c0,0.1,0,0.2,0,0.3
				c0,0.2-0.1,0.4-0.1,0.6c0,0.2-0.1,0.4-0.1,0.5c0,0.2-0.1,0.4-0.1,0.6c0,0.2-0.1,0.4-0.1,0.5c-0.1,0.3-0.1,0.5-0.2,0.8
				c0,0.2-0.1,0.4-0.1,0.6c-0.1,0.3-0.1,0.5-0.2,0.8c0,0.4,0,0.8,0.1,1.1c0.2,0.5,0.5,0.8,0.9,1.1c0.4,0.3,0.8,0.4,1.2,0.4
				c0.7,0,6,0,6.7,0c0,0,3.6,0.2,4.6-2.6c0.2-0.6,0.3-1.3,0.4-1.9l0,0c0.1-0.8,0.2-1.5,0.2-2.3C40.3,19,39.9,17.1,39.2,15.3z"/>
		</g>
		<g>
			<path class="st1" d="M25.8,39.1C15.8,39.1,7.7,31,7.7,21S15.8,2.9,25.8,2.9c10,0,18.1,8.1,18.1,18.1S35.8,39.1,25.8,39.1z
				 M25.8,5.1C17,5.1,9.9,12.2,9.9,21S17,36.9,25.8,36.9S41.7,29.8,41.7,21S34.6,5.1,25.8,5.1z"/>
		</g>
	</g>
	<g>
		<path class="st2" d="M53.2,12.8h5.6c1.2,0,2.3,0.1,3.1,0.3c0.8,0.2,1.5,0.5,2,1c0.5,0.5,0.9,1,1.1,1.7c0.2,0.7,0.3,1.6,0.3,2.6
			c0,1.1-0.1,2-0.4,2.7c-0.2,0.7-0.6,1.3-1.1,1.8c-0.5,0.5-1.2,0.8-2,1c-0.8,0.2-1.8,0.3-3,0.3h-2v5.1h-3.6V12.8z M58.3,21.3
			c0.6,0,1.1,0,1.5-0.1c0.4-0.1,0.7-0.2,1-0.5c0.3-0.2,0.4-0.5,0.6-0.9c0.1-0.4,0.2-0.8,0.2-1.4c0-0.5-0.1-1-0.2-1.3
			c-0.1-0.4-0.3-0.7-0.6-0.9c-0.3-0.2-0.6-0.4-1-0.5c-0.4-0.1-0.9-0.1-1.5-0.1h-1.5v5.7H58.3z"/>
		<path class="st2" d="M68.2,12.8h3.6v16.5h-3.6V12.8z"/>
		<path class="st2" d="M75.5,12.8h5.9l2.7,9.3h0.1l2.8-9.3h5.7v16.5h-3.6v-13h-0.1l-3.2,9.9h-3.6l-3.1-9.9H79v13h-3.5V12.8z"/>
		<path class="st2" d="M103.5,29.5c-1.2,0-2.2-0.1-3.2-0.4c-0.9-0.3-1.7-0.7-2.4-1.3c-0.6-0.6-1.1-1.5-1.4-2.6
			C96.2,24.1,96,22.7,96,21c0-1.7,0.2-3.1,0.5-4.2c0.3-1.1,0.8-2,1.4-2.6c0.6-0.6,1.4-1.1,2.4-1.3c0.9-0.3,2-0.4,3.2-0.4
			c1.2,0,2.3,0.1,3.2,0.4c0.9,0.3,1.7,0.7,2.4,1.3c0.6,0.6,1.1,1.5,1.4,2.6c0.3,1.1,0.5,2.5,0.5,4.2c0,1.7-0.2,3.1-0.5,4.2
			c-0.3,1.1-0.8,2-1.4,2.6c-0.6,0.6-1.4,1.1-2.4,1.3C105.8,29.4,104.7,29.5,103.5,29.5z M103.5,26.5c0.8,0,1.4-0.1,1.9-0.3
			c0.5-0.2,0.9-0.5,1.1-0.9c0.3-0.4,0.5-1,0.6-1.7c0.1-0.7,0.2-1.6,0.2-2.6c0-1-0.1-1.8-0.2-2.6c-0.1-0.7-0.3-1.3-0.6-1.7
			c-0.3-0.4-0.6-0.8-1.1-1c-0.5-0.2-1.1-0.3-1.9-0.3s-1.4,0.1-1.9,0.3c-0.5,0.2-0.8,0.5-1.1,1c-0.3,0.4-0.5,1-0.6,1.7
			c-0.1,0.7-0.2,1.6-0.2,2.6c0,1,0.1,1.9,0.2,2.6c0.1,0.7,0.3,1.3,0.6,1.7c0.3,0.4,0.6,0.7,1.1,0.9
			C102.1,26.4,102.7,26.5,103.5,26.5z"/>
		<path class="st2" d="M121.2,29.5c-1.2,0-2.2-0.1-3.2-0.4c-0.9-0.3-1.7-0.7-2.4-1.3c-0.6-0.6-1.1-1.5-1.4-2.6
			c-0.3-1.1-0.5-2.5-0.5-4.2c0-1.7,0.2-3.1,0.5-4.2c0.3-1.1,0.8-2,1.4-2.6c0.6-0.6,1.4-1.1,2.4-1.3c0.9-0.3,2-0.4,3.2-0.4
			c1.2,0,2.3,0.1,3.2,0.4c0.9,0.3,1.7,0.7,2.4,1.3c0.6,0.6,1.1,1.5,1.4,2.6s0.5,2.5,0.5,4.2c0,1.7-0.2,3.1-0.5,4.2s-0.8,2-1.4,2.6
			c-0.6,0.6-1.4,1.1-2.4,1.3C123.5,29.4,122.4,29.5,121.2,29.5z M121.2,26.5c0.8,0,1.4-0.1,1.9-0.3c0.5-0.2,0.9-0.5,1.1-0.9
			c0.3-0.4,0.5-1,0.6-1.7c0.1-0.7,0.2-1.6,0.2-2.6c0-1-0.1-1.8-0.2-2.6c-0.1-0.7-0.3-1.3-0.6-1.7c-0.3-0.4-0.6-0.8-1.1-1
			c-0.5-0.2-1.1-0.3-1.9-0.3s-1.4,0.1-1.9,0.3c-0.5,0.2-0.8,0.5-1.1,1c-0.3,0.4-0.5,1-0.6,1.7c-0.1,0.7-0.2,1.6-0.2,2.6
			c0,1,0.1,1.9,0.2,2.6c0.1,0.7,0.3,1.3,0.6,1.7c0.3,0.4,0.6,0.7,1.1,0.9C119.9,26.4,120.5,26.5,121.2,26.5z"/>
		<path class="st2" d="M131.9,12.8h5.5l5.2,11.8h0.1V12.8h3.5v16.5h-5l-5.7-12.5h-0.1v12.5h-3.6V12.8z"/>
	</g>
</g>
</svg>
