<?xml version="1.0" encoding="utf-8"?>
<!-- Generator: Adobe Illustrator 26.0.0, SVG Export Plug-In . SVG Version: 6.00 Build 0)  -->
<svg version="1.1" id="图层_1" xmlns="http://www.w3.org/2000/svg" xmlns:xlink="http://www.w3.org/1999/xlink" x="0px" y="0px"
	 viewBox="0 0 200 200" style="enable-background:new 0 0 200 200;" xml:space="preserve">
<style type="text/css">
	.st0{fill:#FFFFFF;}
</style>
<path class="st0" d="M175,35.4c3.5,0,6.2,2.8,6.2,6.3c0,3.1-2.3,5.8-5.4,6.2l-0.8,0.1H25c-3.5,0-6.2-2.8-6.2-6.3
	c0-3.1,2.3-5.8,5.4-6.2l0.9-0.1H175z M125,93.8c3.5,0,6.2,2.8,6.2,6.3c0,3.1-2.3,5.8-5.4,6.2l-0.8,0.1H25c-3.5,0-6.2-2.8-6.2-6.3
	c0-3.1,2.3-5.8,5.4-6.2l0.9-0.1H125z M158.3,152.1c3.5,0,6.2,2.8,6.2,6.3c0,3.1-2.3,5.8-5.4,6.2l-0.8,0.1H25c-3.5,0-6.2-2.8-6.2-6.3
	c0-3.1,2.3-5.8,5.4-6.2l0.9-0.1H158.3z"/>
</svg>
