<?xml version="1.0" encoding="utf-8"?>
<!-- Generator: Adobe Illustrator 26.0.0, SVG Export Plug-In . SVG Version: 6.00 Build 0)  -->
<svg version="1.1" id="图层_1" xmlns="http://www.w3.org/2000/svg" xmlns:xlink="http://www.w3.org/1999/xlink" x="0px" y="0px"
	 viewBox="0 0 600 600" style="enable-background:new 0 0 600 600;" xml:space="preserve">
<style type="text/css">
	.st0{fill:#D04B40;}
	.st1{fill:#EC6D61;}
	.st2{fill:#F26C60;}
	.st3{fill:#F16B60;}
	.st4{fill:#F06B5F;}
	.st5{fill:#475A63;}
	.st6{fill:#ED6A5F;}
	.st7{fill:#475963;}
	.st8{fill:#495963;}
	.st9{fill:#DC665C;}
	.st10{fill:#DB645A;}
	.st11{fill:#403256;}
	.st12{fill:#403255;}
	.st13{fill:#4C5A63;}
	.st14{fill:#505A62;}
	.st15{fill:#473554;}
	.st16{fill:#4C3654;}
	.st17{fill:#4A3654;}
	.st18{fill:#4C3754;}
	.st19{fill:#ECEEF0;}
	.st20{fill:#AFBDC4;}
	.st21{fill:#252A47;}
	.st22{fill:#FEFEFE;}
	.st23{fill:#131831;}
	.st24{fill:#E74E40;}
	.st25{fill:#3A3F59;}
	.st26{fill:#455A64;}
	.st27{fill:#CDC689;}
	.st28{fill:#353A53;}
	.st29{fill:#939071;}
	.st30{fill:#B9BCBE;}
	.st31{fill:#CED7DC;}
	.st32{fill:#373C59;}
	.st33{fill:#92949B;}
	.st34{fill:#FEF49C;}
	.st35{fill:#C9C284;}
	.st36{fill:#CDC589;}
	.st37{fill:#475C66;}
	.st38{fill:#485C66;}
	.st39{fill:#495E68;}
	.st40{fill:#313752;}
	.st41{fill:#465B65;}
	.st42{fill:#495D67;}
	.st43{fill:#C9C184;}
	.st44{fill:#C8C083;}
	.st45{fill:#47484E;}
	.st46{fill:#535353;}
	.st47{fill:#546770;}
	.st48{fill:#5A6C75;}
	.st49{fill:#50646D;}
	.st50{fill:#A84343;}
	.st51{fill:#586A73;}
	.st52{fill:#60727B;}
	.st53{fill:#B6C2C8;}
	.st54{fill:#A44CEF;}
	.st55{fill:#FAD8D2;}
	.st56{fill:#C3D0D6;}
	.st57{fill:#DEE2E5;}
	.st58{fill:#D5D9DD;}
	.st59{fill:#FDFCFD;}
	.st60{fill:#FDFDFD;}
	.st61{fill:#FDF6F4;}
	.st62{fill:#FDF5F3;}
	.st63{fill:#0FBFFF;}
</style>
<g>
	<path class="st0" d="M287.8,45.2c3.9-2.3,7.5-5.1,11.7-6.9c4.5-1.9,9.1-2.8,13.6,0.3c1.9,1.4,3.9,2.7,5.8,4c1.7,1.3,3.3,2.6,5,4
		c0.7,0.5,1.8,1.2,0.6,2.3c-0.5,0.2-1,0.2-1.5,0.1c-7.5-1.5-15.2-1.6-22.8-1.5c-4.1,0.1-8.1,0.5-12.2,1.2c-0.9,0.3-1.9,0.4-2.9,0.2
		c-1-0.6-0.3-1.1,0.1-1.6C286,46.4,287.1,46,287.8,45.2z"/>
	<path class="st1" d="M369,87.4c-5.2-1.3-10.5-2.3-15.8-3.2c-0.6-0.2-1.3-0.2-1.9,0c-0.2,0.1-0.4,0-0.5-0.1
		c-1.7-1.9-2.5-4.3-3.8-6.4c-0.8-1.4-1.6-2.8-2.4-4.2c-0.4-0.7-0.9-1.4-0.1-2.2c2.3-0.6,4.4,0.3,6.7,0.4c1.1,0.1,2.3,0.4,3.2,1
		c1.8,1.4,3.4,2.9,4.9,4.6c3,2.9,5.9,5.8,8.8,8.8C368.5,86.4,369,86.8,369,87.4z"/>
	<path class="st2" d="M263.6,72c-3.9,0.3-7.7,0.8-11.6,1.5c-0.9,0.1-1.8,0.3-2.7,0.4c-1.4,0.4-0.9-0.4-0.6-1
		c3.9-3.4,8.1-6.5,12.5-9.2c0.4-0.5,1-0.8,1.6-1c2.8-0.6,5.6-1.5,8.6-1.6c0.2,0,0.3,0.1,0.5,0.2c0.6,0.8,0,1.3-0.4,1.8
		c-2,2.6-4,5.2-6,7.8C264.9,71.5,264.5,72.2,263.6,72z"/>
	<path class="st2" d="M354.4,72.7c-2.8,0.1-5.5-0.7-8.3-0.9c-0.6,0-1.1-0.1-1.7-0.2c-0.8,0.2-1.1-0.5-1.5-1
		c-1.5-2.4-3.2-4.8-4.9-7.1c-0.5-0.7-1.3-1.7,0-2.5c1.9-0.3,3.8,0.1,5.3,1.2C347.2,65.5,350.9,69,354.4,72.7z"/>
	<path class="st3" d="M264.6,60.9c-0.7-0.3-0.2-0.5,0-0.7c3.6-2.5,7-5.5,11.1-7.4c1.6-0.6,3-2.1,5-1.7c0,0,0.1,0.1,0.1,0.1
		c0.1,1.7-2.3,4-4,3.9c-0.7-0.2-0.6,0.2-0.5,0.7c0.2,0.9-0.1,1.8-0.9,2.2c-0.5,0.4-1,1-1.5,1.4c-0.3,0.2-0.6,0.4-1,0.4
		c-2,0.4-3.9,0.8-5.9,1.2C266.3,61.3,265.4,61.7,264.6,60.9z"/>
	<path class="st4" d="M330.8,51.9c2.2,0.9,3.8,2.6,5.5,4.1c1.5,1.2,2.9,2.4,4.2,3.8c-1.2,1-2.5,0.3-3.7,0.2c-0.5,0-1.1-0.3-1.6-0.4
		c-0.3-0.1-0.5-0.2-0.8-0.4c-0.6-0.7-1.1-1.5-1.4-2.4c0.2-1-0.1-1.6-1.3-1.5c-1.5-0.9-3-1.8-2.8-4C329.7,50.9,330.3,51.3,330.8,51.9
		z"/>
	<path class="st5" d="M264.6,60.9c2.9-0.7,5.8-1.2,8.7-1.5c0.3,1.4-0.8,1.7-1.7,2.1l-10.4,2.2C261.5,61.8,263.2,61.6,264.6,60.9z"/>
	<path class="st5" d="M335,59.1l5.5,0.7c0.8,0.9,2.1,1.3,2.8,2.5l-5.6-0.7c-0.4-0.1-0.8,0.2-1.2-0.1C335.9,60.8,334.7,60.5,335,59.1
		z"/>
	<path class="st6" d="M324.9,48.4c-1.8-2.2-4.1-3.7-6.2-5.5c0-0.5,0.2-0.6,0.6-0.3c2.8,1.8,5.5,3.8,8,6c0.2,0.2,0.5,0.3,0.4,0.7
		c-0.4,0.3-0.9,0.5-1.3,0.4C325.8,49.4,325.1,49.1,324.9,48.4z"/>
	<path class="st7" d="M280.9,51.5l-5.2,1.4c1.5-1.5,3.5-2.3,5.3-3.4c0.3-0.2,0.6-0.3,0.9-0.5c0.5-0.3,1.1-0.7,1.8-0.5
		c0.7,1.6-0.5,2.1-1.5,2.9C281.8,51.7,281.3,51.8,280.9,51.5z"/>
	<path class="st8" d="M326.3,49l1.4,0.2c1.1,0.8,2.8,1,3.1,2.7l-2.1-0.3c-0.4,0.2-0.9,0.2-1.3-0.1C326.8,50.7,325.9,50.2,326.3,49z"
		/>
	<path class="st9" d="M283.7,48.8l-1.8,0.3c1.8-1.5,3.8-2.8,5.9-3.9c-0.6,1.4-2.4,1.8-3.1,3.2C284.5,48.9,284.2,49.1,283.7,48.8z"/>
	<path class="st10" d="M319.3,42.5l-0.6,0.3c-1.8-1.5-4-2.5-5.5-4.3C315.3,39.7,317.4,41,319.3,42.5z"/>
	<path class="st0" d="M350.9,84.1c-3.2-0.5-6.5-1-9.7-1.4c-7.4-0.9-14.9-1.5-22.5-1.6c-14.6-0.4-29.2,0.1-43.7,1.6
		c-6.6,0.7-13.1,1.8-19.7,2.8c-1.2,0-1.6-0.3-0.8-1.4c2.6-3.7,5.5-7.2,8.3-10.8c0.4-0.3,0.7-0.8,0.8-1.3c2.5-2.6,4.4-5.7,6.8-8.5
		c0.5-0.6,1-1.3,1.5-1.9c0.9-1.2,2.3-1.2,3.6-1.4c6-0.7,12-1.3,18-1.6c5.5-0.3,11.1-0.4,16.6-0.2c8.1,0.2,16.1,0.8,24.1,1.8
		c0.9,0.2,1.8,0.5,2.5,1l1,0.3c-0.3,0.5,0,0.8,0.3,1.1c2.4,2.8,4.2,6,6.3,9l5.3,9.6C350.2,82.1,350.7,83,350.9,84.1z"/>
	<path class="st11" d="M283.7,48.8l1-0.5c3.6-0.5,7.3-1.3,11-1.5c6.9-0.6,13.9-0.4,20.7,0.3c2.9,0.4,5.7,0.8,8.5,1.2l1.4,0.6
		l1.4,2.2c-0.9,0.8-1.9,0.4-2.8,0.2c-5.1-1-10.2-1.6-15.4-2c-8.5-0.7-16.8,0.4-25,2c-0.9,0.2-1.8,0.6-2.6-0.2
		C282.8,50.6,283.4,49.8,283.7,48.8z"/>
	<path class="st12" d="M336.7,61.2c-3.9-0.4-7.8-0.9-11.7-1.2c-9.8-0.8-19.7-1-29.6-0.7c-6.3,0.2-12.5,0.7-18.8,1.5
		c-1.6,0.2-3.2,0.5-4.8,0.8l-0.3-0.1l1.7-2.1l0.7-0.3c2.4-1.6,5.2-1.4,7.9-1.6c8.3-0.8,16.6-1.2,24.9-1.1c8.6,0.2,17.3,0.4,25.9,1.7
		c0.7,0.1,1.5,0.4,2,0.8l0.4,0.3L336.7,61.2z"/>
	<path class="st0" d="M334.6,58.8c-5.3-0.4-10.7-1.1-16-1.3c-6.6-0.3-13.1-0.7-19.7-0.3c-5.2,0.3-10.5,0.3-15.7,0.9
		c-3.1,0.3-6.2,0.7-9.3,1c0.5-1.1,2.1-1.5,2.1-3c0.1-0.7,0.5-1.2,1.1-1.4c0.2,0.1,0.3,0.6,0.6,0.2l3-3.3l1.1-0.4
		c4.4-0.8,8.7-1.7,13.1-2.2c8-0.8,16.1-0.6,24,0.7c2.9,0.4,5.8,1,8.7,1.5l1,0.4c1,1.2,1.8,2.6,3.2,3.5c0.6,0.4,1,1,1.3,1.6
		C333.6,57.4,334.4,57.9,334.6,58.8z"/>
	<path class="st13" d="M277.2,54.7c0,0.8-0.2,1.4-1.1,1.5c-0.7-0.3-1-0.8-0.5-1.5S276.6,54.1,277.2,54.7z"/>
	<path class="st14" d="M333.2,56.6c-1.1,0-1.5-0.6-1.3-1.6c0.6-0.3,1.3-0.7,1.9,0S333.6,56.2,333.2,56.6z"/>
	<path class="st15" d="M322.5,53.2c0,0.6-0.4,1.1-1,1.1c-0.1,0-0.1,0-0.2,0c-0.6,0-1.1-0.4-1.1-1.1s0.6-1,1.4-1
		S322.6,52.5,322.5,53.2z"/>
	<path class="st16" d="M297.6,51.3c0.5-0.1,0.9,0.3,1,0.7c0,0.1,0,0.2,0,0.3c0.1,0.5-0.3,1-0.9,1.1c0,0-0.1,0-0.1,0
		c-0.5,0-1-0.3-1-0.8c0-0.1,0-0.1,0-0.2C296.6,51.7,297.1,51.5,297.6,51.3z"/>
	<path class="st17" d="M309.3,51.2c0.5,0,1,0.3,1,0.8c0,0,0,0,0,0.1c0.1,0.5-0.3,1-0.9,1.1c0,0-0.1,0-0.1,0c-0.5,0.1-0.9-0.2-1-0.7
		c0-0.1,0-0.1,0-0.2C308.2,51.7,308.7,51.4,309.3,51.2z"/>
	<path class="st18" d="M287.1,53.6c-0.1,0.6-0.4,1-1,0.9c-0.5,0-0.8-0.4-0.8-0.9c0,0,0-0.1,0-0.1c0-0.5,0.3-0.9,0.7-0.9
		c0,0,0.1,0,0.1,0C286.8,52.6,287.1,53,287.1,53.6z"/>
	<g>
		<path class="st19" d="M369,87.4c1.6,0.7,2.5,2.1,3.6,3.3s2.4,2.6,3.6,3.8c0.1,0.5-0.3,0.7-0.6,0.8c-2.1,0.2-4.1-0.5-6.1-0.7
			c-1.8-0.3-3.5-0.4-5.3-0.5c-1.5,0.1-1.7,0.3-0.9,1.6c2.2,3.3,4.3,6.7,6.4,10.1c0.7,1.2,2,1.9,3.4,1.8c5.5-0.1,10.9,1.2,16.2,2.4
			c0.7,0.2,1.4,0.6,2,1c2.4,2.3,4.6,4.8,6.6,7.5c6.8,8,12.7,16.6,17.9,25.7c2.2,4,2.6,8.4,2.9,12.7c0.9,16.6,0.9,33.1,0.7,49.7
			c-0.2,20.9-0.5,41.8-0.7,62.8c-0.2,19.1-0.4,38.3-0.6,57.4c0,2.8-0.1,5.5-0.4,8.3c-0.8,0.3-1.3-0.4-1.8-0.8
			c-2.8-2.1-4.9-4.9-7.6-7c-0.9-0.8-2.1-1.2-3.3-1.4c-1.1-0.3-2.3,0.3-2.8,1.4c-3.3,4.2-4.4,9.4-5.9,14.3c-2,6.6-2.8,13.5-3.5,20.4
			c-0.8,7.4-1.1,14.8-1,22.3c0.1,5.1,0.6,10.1,1.1,15.2c0.2,0.7,0,1.5-0.4,2.1c-1.7,1.4-3.9,1.6-6,2.2c-1.5,0.4-3,1.3-4.7,0.9
			c-1.2-0.2-1.5-1-1.5-2c0.1-5.2,0-10.4,0.2-15.6c0.4-10.2,0.3-20.4,0-30.6c-0.1-4.3-0.5-8.6-0.6-12.9c0.1-1.9,0-3.8-0.3-5.7
			c-0.3-1.5,0.5-3,1.9-3.5c3.3-1.8,6.3-4,9.6-5.8c0.6-0.3,1.2-0.7,0.9-1.6c-0.3-0.6,0-0.9,0.5-1.3c1.6-1,1.9-2.1,1.3-3.7
			c-2.4-6.3-5.5-12.2-9.2-17.8c-0.9-1.4-1.1-1.4-2.3-0.2c-0.5,0.5-1,0.9-1.6,1.3c-0.6,0.3-1.2,0.5-1.6-0.3c-0.1-0.2-0.2-0.4-0.2-0.7
			c0.1-5.5-0.6-10.9-0.4-16.4c0-0.5,0.2-0.9,0.2-1.4c0-0.7,0.3-1.4,0.8-1.8c5.3-5.2,10.1-11,14.2-17.2c2.7-4.4,5.2-8.9,7.3-13.6
			c4.1-9.1,6.7-18.8,7.6-28.7c2.2-21.8-3.4-43.8-15.8-61.9c-5.4-8.1-12-15.3-19.5-21.5c-1-0.6-1.8-1.5-2.3-2.5
			c-2.6-10.2-5.8-20.2-9.7-29.9c-3-7.3-6.2-14.4-9.8-21.4c-0.3-0.6-0.6-1.2-0.9-1.9c-0.5-1.1-0.4-2,0.9-2.6c2-0.4,3.9,0.3,5.8,0.6
			c3.1,0.5,6.2,1.1,9.2,1.9C367.4,86.3,368.3,86.7,369,87.4z"/>
		<path class="st19" d="M183.8,331.8c0-4.7,0-9.4,0-14.1c1-0.5,1.8,0,2.6,0.4c5.7,2.3,11.8,3.6,18,3.6c0.7,0,1.4,0,2-0.2
			c0.9-0.2,1.6-1.1,1.5-2c-0.4-8.5-0.4-17-0.6-25.5c0.1-1-0.6-1.9-1.6-2.1c-0.1,0-0.3,0-0.4,0c-6.3-0.5-12.5-2-18.3-4.4
			c-1.3-0.5-2.7-1-3.3-2.5c-0.1-9.4-0.2-18.7-0.2-28.1c-0.1-24.9-0.1-49.8-0.1-74.7c0-7.7,1.7-15.2,3.2-22.7
			c2.8-13.6,9.2-25.4,17.2-36.5c7.1-9.8,14.8-19.2,22.6-28.5c0.7-0.8,1.5-1.6,2.3-2.3c1.7-1.5,3.8-1.8,5.8-2.5
			c5.5-1.7,11.1-2.9,16.8-4c0.5-0.1,1-0.1,1.5,0c1.4,0.4,1.3,1.3,0.8,2.3c-0.7,1.3-1.7,2.4-2.4,3.6c-3.9,6.4-7.7,12.9-11.3,19.5
			c-3.4,6.4-5.4,13.3-7.9,20c-1.5,4.1-2.7,8.2-4.6,12.2c-1.6,1.9-3.4,3.6-5.3,5.2c-0.7,0.6-1.2,1.2-1.8,1.9
			c-2.8,3.3-5.6,6.6-8.2,10.1c-9.8,13.3-15.9,28.9-17.7,45.3c-2.1,18.9,1.4,36.6,10.1,53.5c3.7,7.2,8.3,13.9,13.7,20
			c0.6,0.5,1,1.3,1.1,2.1c0.5,6.2,0.3,12.5,0.1,18.7c-0.4,16.4-0.4,32.8-0.2,49.2c0.1,7.4,0.4,14.9,0.7,22.3
			c0.5,10.2,0.1,20.3,0.3,30.5c0,1,0.1,2-0.8,2.7c-0.6,0.3-1.4,0.4-2,0.1c-3.1-1.2-6.1-2.7-9-4.3c-0.5-0.3-0.9-0.7-1.2-1.2
			c-0.3-0.6-0.4-1.3-0.3-2c0.8-6.1,1.1-12.3,1.2-18.5c-0.3-13.5-1.9-27-6-39.9c-1-3.3-2.3-6.5-4-9.6c-0.1-0.1-0.1-0.2-0.2-0.3
			c-0.7-3.2-2.1-3.5-5.7-2.1c-2.3,1.1-4.5,2.5-6.5,4.2C185.1,331.5,184.6,332.1,183.8,331.8z"/>
		<path class="st2" d="M327.1,520.9c-0.7,3.5-1.4,7.1-4.3,9.6c-0.5,0.5-0.7,1.2-0.6,1.9c-1,8.2-2.3,16.5-5.1,24.3
			c-1.6,4.4-4,8.4-7.2,11.7c-3.4,3.6-8.3,3.1-10.6-1.4c-2.4-4.7-3.8-9.8-5.1-14.9c-1.7-6.5-2.1-13.1-3.1-19.7
			c-0.4-2.4-1-4.1-3.5-5.2c-3.6-1.7-4.5-5.3-5.2-8.9c-0.7-3.5-0.9-7.1-0.8-10.7c0-0.7,0.1-1.5-0.9-1.8c-3.3-0.8-5.1-3.1-6.3-6.1
			c-0.2-0.5-0.4-0.9-0.7-1.4c-0.7-0.4-1.2-1.1-1.3-1.9c-0.9-4.1-1.1-8.3-0.6-12.4c0.3-2.4,0.2-4.8,0.4-7.2c0.4-6.7,1.8-13.1,3-19.6
			c0.2-1.6,0.6-3.2,1.2-4.7c0.6-0.8,1.1-0.3,1.5,0.1c2.7,3.5,6.6,4.8,10.6,6c1.2,0.3,2.5,0.2,3.3,1.5c0.2,1.2,0.2,2.4-0.1,3.6
			c-0.5,5.6-0.7,11.2-0.6,16.8c0,1.3,0.2,2.5,0.8,3.7c0.4,1,1.3,1.8,2.5,2c2,0.4,2.4,0.9,2.7,3c0.7,6,1.8,11.9,3.2,17.7
			c0.1,1,0.5,1.9,1,2.8c0.6,1,1.9,1.4,2.9,0.8c0.4-0.2,0.8-0.6,1-1.1c0.4-0.7,0.6-1.5,0.9-2.3c0.8-2.6,2-5.1,3.6-7.2
			c1.8-2.4,2.3-5.4,2.8-8.3c0.2-1.4,0.6-2.7,1.3-3.9c0.7-1.2,1.1-2.6,1-4c-0.2-6.2,0.6-12.5,0.4-18.7c0-0.7-0.1-1.4-0.2-2.1
			c-0.3-1.1-0.2-2.3,0.2-3.4c0.5-0.7,1.3-1.1,2.2-1.2c3.5-0.9,6.7-2.6,9.4-5c0.5-0.4,1-0.8,1.7-0.3c1.8,2.3,2.8,5.1,3,8
			c0.5,4.6,1.4,9.1,2,13.7c0.5,4,0,7.8-0.3,11.7c-0.5,5.1-1.6,10.1-3.2,14.9c-0.3,1.1-0.4,2.2-0.4,3.2c0.2,4.6-0.1,9.1-0.7,13.6
			C328.2,519.3,328.1,520.3,327.1,520.9z"/>
		<path class="st20" d="M391.9,401.5c0.2-0.3,0.3-0.7,0.2-1.1c-1.1-8.3-1.5-16.6-1.2-25c0.4-10.5,1.2-20.9,3.8-31.1
			c1.3-5.2,2.8-10.5,5.5-15.3c0.4-0.8,0.8-1.7,1.8-2c1.3-0.4,2,0.6,2.8,1.3c2.8,2.6,5.4,5.4,8.1,8c3,2.9,6.2,5.7,9.1,8.8
			c3.6,3.9,7.4,7.6,10.5,11.9c1.2,1.6,2.3,3.3,3.2,5.1c0.6,1.1,0.7,2.4,0.4,3.7c-1.9,7.7-3.7,15.5-4.3,23.5
			c-0.5,6.4-0.8,12.9-1.1,19.3s0.5,12.8,0.7,19.2c0.2,4.1,0.7,8.2,1.5,12.2c0.3,0.7,0.2,1.5-0.3,2.1c-2.5-0.3-5-0.6-7.1-2.1
			c-8.9-6.8-17.5-13.9-26-21.2c-1-1-2-2-2.9-3c-2.3-1.2-2.8-3.5-3.3-5.7c-0.2-1.1-0.4-2.2-0.7-3.3c-0.1-0.9-0.3-1.8-0.5-2.6
			C391.8,403.3,391.7,402.4,391.9,401.5z"/>
		<path class="st20" d="M198,328.7c1.1,0.1,1.2,1.1,1.6,1.9c3.4,7.8,5.8,16,7,24.4c1.5,8.9,2.2,18,2.1,27
			c-0.1,5.3-0.4,10.5-1.2,15.8c-0.1,0.5-0.1,1,0.2,1.5c0.1,3.3-0.8,6.4-1.6,9.5c-0.7,2.8-1.4,5.6-3.1,8c-0.5,0.4-0.9,1-1.6,1
			c-5,5-10.7,9.1-16.1,13.6c-3.6,3-7.2,6-11,8.7c-2,1.4-4.3,2.3-6.7,2.6c-1.3,0.3-2.7-0.1-3.7-1.1c0-0.6,0.2-1.3,0.4-1.9
			c2.4-7.7,3.9-15.7,4.5-23.8c0.6-5.9,0.2-11.8,0.3-17.7c0-1.4-0.3-2.9-0.4-4.3c-0.2-3.4-0.1-6.9-0.4-10.3c-0.3-4.1-1.1-8.1-2.3-12
			c-0.5-1.9-1.2-3.9-2-5.7c-0.7-1.4-0.6-3.1,0.2-4.5c2.3-4.3,5.1-8.3,8.5-11.8c6.7-7.5,14.3-14.2,22.6-19.9
			C196.1,329.1,196.8,328.3,198,328.7z"/>
		<path class="st2" d="M377.4,441.1c1.1,4.1,1.5,8.3,1.2,12.5c-0.1,4.4,0,8.9-1.2,13.3c-0.4,1.7-1.1,3.3-2.2,4.6
			c-0.3,0.3-0.5,0.8-0.6,1.2c-1.1,6.9-3.7,13.4-5.6,20c-0.3,1.8-1.6,3.3-3.4,3.9c-0.8,0.3-0.8,0.9-0.8,1.5
			c-0.4,5.7-2.2,11.3-5.2,16.2c-1.2,2-2.2,4.1-4.8,4.7c-0.7,0.2-0.6,0.9-0.8,1.4c-1.2,5.5-3.5,10.8-6.6,15.5c-2.7,4-5.7,4.1-9.1,0.7
			c-3.2-3.2-4.6-7.1-5.3-11.4c-0.2-1.5-0.6-2.5-2.4-2.4c-0.4,0-0.8-0.4-1.2-0.6c-0.4-1.3-0.4-2.7,0.2-3.9c1.2-4.2,1.2-8.5,1.5-12.9
			c0.1-1.7,0.5-3.4,1-5c1.1-3.2,2.8-6.1,3.2-9.5c0.6-4.5,0.5-9.1-0.1-13.6c-0.9-5.5-1.3-11-2-16.5c-0.1-0.6-0.1-1.2,0-1.7
			c1-2.6,0.3-5.2,0.4-7.9c-0.1-1.2-0.3-2.4-0.8-3.5c-0.3-1-0.7-2-0.3-3c0.6-0.7,1.3-0.2,1.8,0.1c1.6,0.9,3.4,1.7,5.2,2.1
			c1,0.3,1.8,0.7,2.1,1.8c0.5,2.7-0.2,5.3-0.7,7.9c-0.6,3.3-0.7,6.4,1,9.4c0.9,1.6,0.9,3.6,0.9,5.4c0.1,3.5-0.4,7,0.3,10.5
			c0.2,1.2,0.7,2.3,1.5,3.2c0.8,0.8,1.2,1.9,1.3,3c0.3,2.6,0.7,5.3,1.3,7.8c0.1,0.4,0.2,0.8,0.3,1.2c0.3,1.1,0.4,2.5,2,2.4
			s1.7-1.3,2-2.5c0.5-2.3,0.9-4.7,1.3-7c0.5-3,1.8-5.8,3.6-8.1c2.6-3.2,3.3-7.2,4-11.1c0.4-3.1,1.5-6,3-8.7
			c2.5-3.9,3.5-8.7,2.7-13.3c-0.1-0.6-0.1-1.1,0-1.7c0.3-0.7,0.8-1.1,1.5-1.3c3-1.1,5.9-2.3,8.3-4.5
			C376.4,441,376.9,440.9,377.4,441.1z"/>
		<path class="st2" d="M272.2,502.2c-0.6,1.9-1.7,3.6-3.2,4.9c-1.1,1.1-2.8,1.4-4.2,0.8c-1.1-0.4-1.5,0-1.9,0.9
			c-2.2,4.9-4.5,9.8-7.1,14.5c-1.6,3.1-3.1,4-5.7,3.6c-1.7-0.3-3.3-1.3-4.3-2.8c-2.2-2.7-3-6-3.9-9.2c-2.9-10.5-5-21.3-6.2-32.1
			c-0.1-0.9-0.2-1.6-1.4-1.4c-4.2,0.7-7-2.9-7.3-6.8c-0.1-1.7-0.1-3.4-0.1-5c0-0.9-0.2-1.3-1.2-1.4c-4.4-0.2-6.8-2.6-7.1-6.9
			c-0.5-7.8,1.5-15.7,5.7-22.3c0.5-0.1,1.1,0.2,1.3,0.7c2.4,3.7,6.3,4.9,10.1,6.1c0.9,0.3,2,0.3,2.6,1.3c0.4,2.3-0.7,4.4-0.8,6.7
			c-0.1,2.5-0.8,5-0.2,7.6c0.7,3.2,2.1,5.8,5.5,6.6c1.2,0.3,2.1,1.3,2.2,2.6c0.3,1.8,0.1,3.9,1.4,5.3c2.8,3,2.9,6.9,3.7,10.6
			c0.5,2.3,1.1,4.6,1.8,6.9c0.3,0.9,0.7,1.9,2,1.8s1.6-1,1.9-2c0.4-1.9,0.7-3.7,0.9-5.6c0.6-3.5,1.3-6.9,3-10
			c1.2-2.4,1.9-5.1,1.8-7.9c0-1.2,0.1-2.3,0.5-3.4c1.8-4.5,1.9-9.4,2.3-14.1c0.2-1.5,0.2-3.1,0.2-4.6c0.2-0.4,0.6-0.8,1.1-0.9
			c1.3-0.4,2.7-0.6,4-1c0.6-0.3,1.3-0.2,1.8,0.2c0.3,0.8,0.2,1.6-0.2,2.4c-1.9,6.4-4,12.8-4.6,19.5c-0.4,2.5,0,5,1,7.2
			c1.2,2.5,1.8,5.3,1.6,8.1c0,5.1,0.8,10.2,2.3,15C272.3,499.2,272.4,500.7,272.2,502.2z"/>
		<path class="st21" d="M226.4,425.5l-7.2-2.1c-0.4-0.5-0.7-1.2-0.7-1.9c0-4.8-0.6-9.7-0.4-14.5c0.1-1.1,0.1-2.1,1.5-2.4
			c0.8-0.2,1.6-0.1,2.4,0.3c11.6,4.2,23.6,7.2,35.9,8.8c6.3,0.9,12.7,1.3,19.1,1.8c4.4,0.3,8.8-0.1,13.1,0.6c0.7,0,1.5,0.2,2.1,0.6
			c1,1.8,1,3.8,1.1,5.7c0.3,3.4,0.6,6.8,1.2,10.2c0.2,0.7,0.1,1.4-0.4,2c-3-1.8-6.3-0.8-9.5-1c-1.5-0.1-3.1,0-4.6,0
			c-0.9-0.7-1.5,0.5-2.3,0.5c-1-0.4-2.1-0.7-3.2-0.8c-6-0.1-12-0.6-17.8-1.8c-9-1.5-18-2.7-26.9-4.5
			C228.6,426.6,227.3,426.6,226.4,425.5z"/>
		<path class="st21" d="M381.1,423.1c-1,0.7-2.2,0.7-3.3,1.2c-0.5,0.2-1.2,0.2-1.5,0.9c-1.7,1.2-3.9,1.6-5.9,1.2
			c-0.9-0.2-1.8-0.1-2.7,0.1c-3.4,0.9-6.9,1.2-10.1,2.7c-2.4,1.2-5.3,1-8,1.4c-5.6,0.8-11.4,1.1-17,1.6c-1.9,0.3-3.9,0.4-5.9,0.4
			c-4.7,0.6-9.4,0.5-14,1.1c-0.7,0.1-1.4,0-2-0.5c-1-1.6-0.1-3.2,0-4.7c0.3-3.6,0.5-7.2,0.8-10.8c0-0.6,0.1-1.1,0.4-1.6
			c1-0.8,2.2-1.1,3.4-1c6-0.3,12-1,18-1.8c9.8-1.2,19.6-2.9,29.3-5c5.4-1.2,10.7-2.5,16-3.8c1-0.4,2.2-0.3,3.2,0.2
			c0.5,0.9,0.7,2,0.4,3c-0.5,4.2-0.2,8.5-0.3,12.7C381.8,421.5,381.9,422.4,381.1,423.1z"/>
		<path class="st22" d="M198,328.7c-8.8,5.8-16.9,12.7-24.1,20.5c-3.7,3.8-6.8,8.2-9.3,12.9c-0.5,0.9-0.6,2-0.1,2.9
			c2.6,5.7,3.8,11.9,4.6,18.1c0.4,3.3,0.1,6.6,0.4,9.9c0.6,6.4,0.7,12.9,0.3,19.4c-0.4,9.3-2,18.6-4.8,27.5c-0.2,0.6-0.1,1.3-1,1.5
			c-2.4-1.6-3.5-3.9-4.2-6.7c-4-15.7-4.1-31.7-3.5-47.7c0.2-5.8,0.2-11.6,1.2-17.4c1.6-9.5,6.6-17.1,12.8-24.1
			c4.2-4.8,9-9.1,13.5-13.7c2.2-1.8,4.6-3.5,7-5c1.7-1.2,3.7-1.2,5.6-1.4C197.1,325.3,198.2,327.5,198,328.7z"/>
		<path class="st22" d="M432.5,442.1c-1.8-8.1-2.1-16.3-2.5-24.6c-0.5-9.9,0.2-19.7,1.1-29.5c0.7-6,1.7-11.9,3.2-17.7
			c0.3-1.9,0.7-3.7,1.4-5.5c0.4-0.8-0.1-1.5-0.5-2.1c-2.7-5-6.5-9.2-10.4-13.4c-6.5-7.2-13.9-13.5-20.6-20.5
			c-0.7-0.7-1.5-1.3-2.3-1.8c0.1-1.3,0.6-1.5,2-1.6c3,0,4.8,1.6,6.6,3.5c2.2,2.3,4.5,4.4,6.9,6.4c5.9,5.3,11.4,11,16.4,17.1
			c3.9,4.8,6.4,10.5,7.3,16.5c2.2,12.4,3.1,25,2.7,37.6c-0.4,9.7-1.5,19.3-5.1,28.5c-0.8,2.2-2,4.3-3.4,6.2
			C434.6,442.2,433.7,442.8,432.5,442.1z"/>
		<path class="st19" d="M183.8,315.5l-0.1-1.7c-0.2-8.4,0-16.9-0.1-25.3c0-1.2,0.6-1.4,1.5-1.1c0.6,0.2,1.2,0.4,1.8,0.6
			c5.4,2.3,11.1,3.7,16.9,4.3c2,0.2,2.8,1,2.9,2.8c0.4,7.7,0.8,15.3,0.7,23c0,2.6-0.8,3.5-3.2,3.3c-5.5-0.5-11-1.1-16.2-3.2
			C186.4,317.5,184.6,317.2,183.8,315.5z"/>
		<path class="st23" d="M332.6,431.8c1.5-0.7,3.1-0.5,4.6-0.6c6.3-0.4,12.6-1.2,18.8-2.2c0.4,0,0.8-0.1,1.2-0.2
			c3.4-2.3,7.5-2.1,11.2-3.2c0.3-0.1,0.7-0.1,1,0c1.9,0.6,4,0.4,5.9-0.5c0.3-0.1,0.7,0,1,0.2l0.8,2.4c0.1,1.5-1.1,2.2-2.1,2.9
			c-2.9,1.8-6,3.2-9.4,4c-1.7,0.5-3.4,0.9-5.1,1.1c-1.6,0.2-3.1,1-4.2,2.2c-2.2,2.5-4.7,4.8-6.5,7.6c-0.8,1.3-2.1,1.5-3.4,1.6
			c-5.2-0.2-10.2-1.6-14.7-4.1c-0.9-0.5-1.4-1.4-1.3-2.4c0.1-2.2,0.4-4.5,1-6.7C331.5,433,332,432.3,332.6,431.8z"/>
		<path class="st23" d="M226.4,425.5c3.4,0.7,6.8,1.4,10.2,2c9.2,1.5,18.4,2.9,27.6,4.4c3.5,0.5,7,0.7,10.5,0.7
			c1.2,0,2.7-0.2,3.4,1.4c1,1,0.5,2.1,0.4,3.2c-0.1,0.7-0.3,1.4-0.5,2.1c-0.1,0.5-0.2,0.9-0.4,1.4c-0.7,1.5-1.3,3.3-3.4,3.5
			c-1.8,0-3.5,0.8-5.3,1c-0.8,0.1-1.6,0.2-2.4,0.2c-2.2,0.1-3.8-1-5.3-2.5c-2.5-2.5-5.5-4.4-8.8-5.8c-1.6-0.6-3.3-0.9-5.1-1
			c-5.8-0.5-11.1-2.6-16.7-4c-1.3-0.4-2.6-1-3.8-1.8c-0.8-0.4-1.3-1.1-1.5-2C225.5,427.3,225.8,426.3,226.4,425.5z"/>
		<path class="st21" d="M225.4,428.3c3.3,3.1,7.6,3.5,11.6,4.8c4.2,1.2,8.6,2.1,13,2.6c3.6,0.5,6.6,2.5,9.5,4.7
			c1.4,1.1,2.6,2.2,3.8,3.5c0.9,1,2,0.6,3.1,0.8c-0.5,1.3-2,0.7-2.8,1.2c-8.5,1-17.1,0.6-25.4-1.3c-3.3-0.7-6.5-2-9.5-3.7
			c-2.9-1.7-4.6-4.1-4.4-7.6C224.3,431.6,224.6,429.9,225.4,428.3z"/>
		<path class="st24" d="M274.4,443.7c1.4-0.6,2.1-1.9,2.7-3.2c0.4-0.1,0.5,0.2,0.7,0.5c0.2,0.6,0.2,1.1,0,1.7
			c-0.6,2.3-0.8,4.6-0.7,7c-0.4,0.8,0.4,1.7-0.3,2.5c-1,5-1.9,10.1-2.9,15.1c-0.7,4-1.1,8-1.3,12c-0.2,2.9-0.4,5.8-0.4,8.6
			c-0.1,3.6,0.4,7.1,1.4,10.6c-0.4,1.3-0.8,2.5-1.4,3.8c-1.7-6.2-3.6-12.4-3.5-19c0.2-2.8-0.3-5.7-1.6-8.2c-1.8-3.2-1.2-6.6-0.7-10
			c1.1-6.6,2.8-13.1,5.1-19.3C271.9,444.2,273.3,444.1,274.4,443.7z"/>
		<path class="st24" d="M332.9,444.6c0.1,0.7,0.2,1.4,0.4,2c1.5,3,0.8,6.3,1.4,9.5c0.2,1.1-0.9,2.1-0.8,3.3c0.2,2,0.3,3.9,0.5,5.9
			c0.5,7,2.3,14,2,21.1c-0.1,3.5-0.4,6.9-1.9,10.1c-2.3,4.9-3,10.1-3.1,15.4c-0.1,3.6-1.2,7-2,10.5c-1-0.2-1.3-1.3-2.4-1.4
			c1.3-5.2,1.4-10.6,1.3-16c0-1.9,0.3-3.8,1-5.6c1.5-5.1,2.5-10.3,3-15.6c0.8-7.1-0.9-14-1.7-20.9c-0.4-3.5-1.4-6.8-2.9-10
			c-0.3-0.7-0.2-1.5,0.2-2.1c0.7-1.8,1.1-3.7,1.1-5.7c0.6-1.1,0.9-2.4,2.4-2.7C332,443.1,333.3,443.3,332.9,444.6z"/>
		<path class="st1" d="M253.1,86.1c-6.7,1.2-13.3,2.7-19.8,4.7c-1.5,0.4-3,0.9-4.5,1.3c6.2-6.8,12.3-13.8,19.8-19.3
			c1,0.5,1.9,0.1,2.9-0.1c3.2-0.6,6.4-1,9.7-1.5c0.7-0.2,1.5-0.1,2.2,0.2c1,0.9,0.2,1.7-0.3,2.3c-2.4,3.1-4.9,6.1-7.1,9.3
			c-0.7,0.7-0.9,1.6-0.6,2.5C254.7,86.8,253.8,85.8,253.1,86.1z"/>
		<path class="st21" d="M346.4,446.4c1.5,0.2,2.3-0.6,3.2-1.8c2.2-3,4.7-5.8,7.4-8.3c0.9-0.8,2.1-1.2,3.3-1.3
			c4.7-0.7,9.2-2.2,13.4-4.4c1.3-0.7,2.5-1.7,3.4-2.9c0.6,1.1,0.9,2.3,1,3.5c0.3,0.4,0.1,1,0.3,1.4c0,0.7,0,1.3,0.1,2
			c0.2,1.7-0.7,2.9-1.6,4c-1.5,1.8-3.4,3.3-5.5,4.3c-5.6,2.8-11.7,4.4-17.9,4.5c-1.8-0.1-3.6-0.2-5.3-0.1
			C347.4,447.2,346.6,447.3,346.4,446.4z"/>
		<path class="st25" d="M219.9,405c-1.2,0-1,0.9-1.1,1.7c-0.2,5.6,0.5,11.1,0.4,16.6c-2.3-1.1-4.7-2-7.1-2.5c-2-0.6-3.8-1.5-5.3-2.8
			c-1.1-0.9-2.6-1.1-3.9-0.5c-0.3-0.2-0.5-0.7-0.4-1c2.6-4.8,3.5-10.2,4.5-15.5c0.1-0.6,0-1.4,0.7-1.9c3.5,2.1,7.2,3.9,11,5.3
			C219,404.7,219.8,404.2,219.9,405z"/>
		<path class="st25" d="M381.1,423.1c0-6.1,0-12.2,0.3-18.4c0-0.2,0.3-0.2,0.4-0.3c3.4-0.7,6.7-1.8,10-2.9c0.5,0.7,0.8,1.6,0.7,2.5
			c-0.1,1.7,0.2,3.4-0.3,4.7c0-0.7,0.2-1.5,0.8-2c0.7,3.2,1.3,6.5,3.5,9.1c-1.7,0.4-3,1.7-4.5,2.5
			C388.4,420.1,385,422.2,381.1,423.1z"/>
		<path class="st26" d="M183.8,315.5c6.5,3.5,13.6,4.7,20.8,5.2c1.7,0.1,2.1-0.4,2.1-2.1c0-5.8-0.4-11.6-0.4-17.5
			c0-2.2-0.2-4.4-0.2-6.6c0-1-0.3-1.3-1.2-1.3c-4.5-0.4-9-1.3-13.4-2.7c-2.6-0.9-5.2-1.9-7.7-3.1v26.4c-0.3-0.6-0.4-1.3-0.2-2
			c0-7.5,0-15,0-22.4c0-1.4,0.2-2.9,0.3-4.3c6.7,3.8,14.1,5.6,21.8,6.2c2.2,0.2,2.5,0.4,2.5,2.6c0,7.2,0.6,14.4,0.4,21.7
			c0,1.1,0.1,2.3,0.2,3.4c0.2,2.7-0.7,3.7-3.4,3.6c-7.5-0.2-14.7-1.5-21.4-4.9C183.8,317,183.8,316.2,183.8,315.5z"/>
		<path class="st19" d="M379.1,97.7c3,2.7,5.6,5.9,8.3,8.9l1.8,1.9c-0.4,1.2-1.4,0.8-2.2,0.6c-2.8-0.6-5.5-1.1-8.3-1.5
			c-1.8-0.2-3.6-0.4-5.5-0.5c-1.3,0-2.5-0.6-3.2-1.8c-1.7-2.6-3.3-5.3-4.9-8c-0.9-1.5-0.4-2.5,1.2-2.4
			C370.7,95.3,375.1,95.5,379.1,97.7z"/>
		<path class="st27" d="M224.3,433.3c0.6,3.9,3,6.3,6.4,8c5.1,2.2,10.5,3.6,16,4.1c5.6,0.5,11.2,0.5,16.7,0c1.9-0.2,2.4,0.1,2.5,1.8
			l-1,0.4c-0.5,0.6-1.1,1-1.9,1c-4,0.7-8.1,0.9-12.2,0.5c-3.1-0.4-6.2,0.1-9.3-0.5c-1.2-0.2-2.6-0.1-3.4-1.4c-2.4-0.5-4.7-1.2-7-2.1
			c-2.8-1.2-5.2-3.2-6.7-5.9C223.9,437.1,223.5,435.2,224.3,433.3z"/>
		<path class="st26" d="M379.1,97.7c-3.6-0.6-7.1-1.5-10.7-1.8l-3.6-0.3c1.3,2.2,2.5,4.1,3.7,6c1,1.6,1.7,3.7,3.2,4.6
			s3.6,0.4,5.4,0.6c3.7,0.4,7.3,1,10.9,1.8c0.4,0.1,0.9,0.5,1.2-0.1c0.8,0.8,1.5,1.8,2,2.8L380,109c-2.7-0.5-5.4-0.7-8.1-0.7
			c-1,0.1-1.9-0.5-2.4-1.3c-2.5-3.9-4.6-8-7.5-11.6c-0.3-0.3-0.5-0.8-0.3-1.3c0.3-0.7,0.9-0.6,1.5-0.7c3.6,0.1,7.2,0.5,10.8,1.2
			c0.5,0.1,1,0.2,1.5,0.2c0.4,0.3,1-0.1,1.4,0.3L379.1,97.7z"/>
		<path class="st27" d="M353.7,446.7c4.9-0.3,9.7-1.4,14.3-3.1c2.6-1,5.1-2.5,7.2-4.4c1.4-1.2,2.4-2.8,2.8-4.6c0.3-0.4,0-1,0.2-1.4
			c0.1-0.1,0.3-0.1,0.4,0c0,0,0,0,0,0c1.1,2.9,0.1,5.4-1.3,7.9c-2.9,3.2-6.9,4.5-10.8,6c-0.6,1-1.7,1.1-2.7,1.3
			c-5.9,1.4-11.9,1.1-17.9,1.1c-0.7,0.1-1.4-0.2-1.8-0.9c1.3-1.1,3-1.7,4.6-1.7C350.5,446.7,352.1,447,353.7,446.7z"/>
		<path class="st28" d="M202.5,416.5c0.3,0.3,0.4,0.7,0.4,1c-0.5,0.1-0.9,1.2-1.4,0.1L202.5,416.5z"/>
		<path class="st29" d="M378.7,433.2h-0.3c-0.3-0.2-0.1-0.5-0.4-0.8c0-0.5,0-0.9,0-1.4C378.5,431.7,378.7,432.4,378.7,433.2z"/>
		<path class="st30" d="M376.9,95.2c-0.5,0.1-1,0-1.4-0.3l0.7-0.4C376.6,94.6,376.9,94.9,376.9,95.2z"/>
		<path class="st31" d="M381.9,404.4l-0.4,0.3c-4,1-8,2-12.1,2.9c-17.6,4.2-35.6,6.9-53.6,8.2c-1.2,0.1-2.4,0.2-3.6,0.3
			c-1-0.8-0.8-1.9-0.6-2.9c0.2-1.4,0.3-2.8,0.2-4.1c0-7.8,0.2-15.6,0-23.4c-0.3-13.6-1.7-27.2-6.1-40.2c-0.5-1.7-1.2-3.4-2-5
			c-0.4-0.6-0.6-1.5-1.5-1.5s-1.4,0.9-1.8,1.6c-1.5,3-2.7,6.3-3.4,9.6c-2,9.2-3.4,18.6-4.2,28c-0.7,7.5-1.3,15.1-0.9,22.6
			c0.2,4.1,0,8.2,0.5,12.3c0.2,1.2,0.5,2.5-0.4,3.7c-2.8-0.3-5.6-0.4-8.5-0.4c-16.8-0.4-33.5-2.7-49.8-7c-4.7-1.3-9.2-2.9-13.8-4.5
			l-1.2-0.6c0.8-0.2,0.8-0.9,0.8-1.5c0-9.5,0.1-19-0.1-28.4c-0.2-7.4-0.4-14.8-0.7-22.1c-0.6-13.7-0.2-27.4-0.2-41.1
			c0-10.1,0.4-20.2,0.3-30.3c1.1-0.3,1.5,0.6,2.1,1.2c8.7,8.9,18.8,16.3,30,21.8c12,5.9,25,9.6,38.2,11c5.9,0.5,11.7,0.7,17.6,0.6
			c1.6,0,3.2-0.5,4.8-0.2c5-0.6,10-1.4,14.9-2.3c2.4-0.7,4.8-1.3,7.2-1.8c10.7-3.1,20.8-7.8,30.1-13.9c4.7-3.1,9.2-6.6,13.4-10.4
			c0.5-0.5,1-1.2,1.9-0.8l0.3,19.4c0.1,1.1-0.8,1.5-1.5,1.9c-4,2.8-8.4,4.6-12.8,6.6c-6.8,3-13.7,5.5-21.1,6.5
			c-1.8,0.2-2,0.7-1.6,2.4c0.2,0.5,0.2,1.1,0.1,1.7c-0.6,0.7-0.8,1.7-0.5,2.6c1.1,5.2,2.1,10.4,2.9,15.6c0.3,2,1,2.5,3,2.6
			c1.1,0,2.2,0,3.3-0.2c7.4-1.3,14.7-3.6,21.5-6.8c1.5-0.7,3.1-1.1,4.6-2c0.5-0.3,1.2-0.5,1.1-1.4c0.2-0.9,0.9-1.3,1.6-1.6
			c3.3-1.6,6.4-3.6,9.3-6c0.7-0.6,1.4-1.2,2.5-0.8c0.5,0,1.1-0.2,1.3,0.5c0.1,0.5-0.1,1.1-0.6,1.3c-0.7,0.5-1.4,0.9-2.2,1.3
			c-3.3,1.6-6.1,4-9.3,5.6c-1.1,0.5-1,1.3-0.9,2.2c0.6,4.9,0.3,9.9,0.6,14.8c0.7,10.8,0.4,21.7,0.3,32.6c-0.1,5.9-0.2,11.8-0.2,17.6
			C380.8,403.5,380.7,404.3,381.9,404.4z"/>
		<path class="st31" d="M350.9,84.1l0.4,0.1c-0.9,0.6-0.4,1.2-0.1,1.8c1.8,3.5,3.8,7,5.4,10.6c1.8,4,3.4,8.1,5.1,12.1
			c3.8,9.4,7,19.1,9.5,29c0.2,0.5,0.3,1.1,0.2,1.7c-0.9,0.5-1.6-0.1-2.2-0.6c-4.6-3.4-9.4-6.5-14.5-9.2c-8.1-4.3-16.7-7.5-25.6-9.7
			c-5.8-1.4-11.6-2.4-17.5-3c-4.9-0.6-9.8-0.7-14.7-0.2c-1.4,0.1-2.9,0.1-4.3,0.1c-3.2,0.3-6.5,0.7-9.7,1.2c-1.9,0.3-3.7,0.7-5.6,1
			c-2.1,0.4-4.1,1.2-6.2,1.4c-14,3.8-27.1,10.2-38.6,19c-1.2,0.9-2.4,2-3.6,3c-0.5,0.4-1,1.1-1.8,0.6c2.7-7.6,5.4-15.2,8.2-22.8
			c2.4-6.2,5.4-12.2,8.9-17.9c2.8-5,5.8-10,9.1-14.7c0.3-0.4,1-1.1-0.1-1.5l2.2-0.6c0.4-0.6,1-1,1.8-1c4.9-0.9,9.9-1.6,14.9-2.2
			c6.2-0.8,12.5-1.2,18.8-1.6c3.2-0.2,6.3-0.4,9.5-0.4c5.1,0,10.3-0.1,15.4,0c10.7,0.1,21.3,0.9,31.9,2.5
			C348.7,82.8,349.9,83.3,350.9,84.1z"/>
		<path class="st32" d="M292.7,116.1c5.4-0.4,10.8-0.4,16.3-0.1c19.3,1.5,37.2,7,53.6,17.3c3,1.9,5.9,4,8.8,6.1
			c4.2,3.5,8.3,7.2,12.1,11.2c11.6,12.5,19.8,27,23.7,43.6c6.2,26.4,1.5,51-13.1,73.8c-0.3,0.1-0.6,0.1-0.8,0
			c-3.1-2.1-5.7-4.8-7.8-7.9c0.1-0.8,0.3-1.6,0.8-2.2c6-10.2,9.7-21.6,10.9-33.4c2-22.1-4.1-42-17.7-59.5
			c-11.5-14.7-26.3-24.8-43.9-30.9c-8.4-2.9-17.1-4.7-25.9-5.3c-3.6-0.2-7.1-0.2-10.7-0.3c-0.9,0.1-1.9-0.1-2.7-0.4
			c-0.5-0.4-0.9-0.9-1.1-1.5c-1.1-2.8-2.4-5.4-3.5-8.2C290.7,116.6,290.9,116.4,292.7,116.1z"/>
		<path class="st22" d="M342.3,324.6c-1.3-4.2-1.3-4.2,3.1-4.9c7.2-1.4,14.2-3.7,20.8-6.8c4.6-2.1,9.3-4.1,13.3-7.3
			c1.1-0.6,2.1-1.5,2.9-2.5c0.8-1,1.8-0.9,2.5,0.3c3.3,5.6,7.1,11,8.9,17.3c0.2,0.7,0.9,1.1,1,2c0.3,2.3-0.3,3.2-2.8,4.1
			c-4.2,3.1-8.6,5.9-13.2,8.3c-0.3,1.1-1.4,1.3-2.2,1.7c-7.6,3.2-15.4,5.6-23.5,7c-1.3,0.4-2.7,0.6-4.1,0.7c-2.6,0-3.6-0.9-4.1-3.5
			c-0.5-3.2-0.7-6.4-1.4-9.6c-0.3-1.5-0.7-3-1.1-4.5C341.9,326.1,341.9,325.2,342.3,324.6z"/>
		<path class="st33" d="M385.6,260.3l7.4,7c0.3,0.3,0.7,0.5,1,0.7c-3.9,6.2-8.6,11.9-13.8,16.9c-0.4,0.4-0.7,0.7-1.1,1.1
			c-5,4.7-10.5,8.9-16.3,12.6c-9,5.7-18.7,10.1-28.9,13c-0.3-0.2-0.7-0.4-0.9-0.7c-1.4-2.7-2.7-5.5-3.9-8.4c-0.1-0.3-0.1-0.6,0-0.9
			c0.4-1,1.2-1.1,2.1-1.4c13-3.8,25.1-10.3,35.4-19.1c6.5-5.5,12.2-11.9,16.9-18.9C384,261.5,384.3,260.3,385.6,260.3z"/>
		<path class="st32" d="M311.4,315.8c-21.1,1.9-42.3-2.1-61.3-11.6c-11.6-5.7-22.1-13.5-30.9-23.1c-0.1-0.1-0.3-0.2-0.4-0.3
			c-5.1-5.7-9.6-12-13.4-18.6c-9.4-17-13.6-35.3-11.8-54.7c1.7-18.4,8.7-35.9,20.2-50.4c2-2.6,4.2-5.1,6.4-7.5
			c0.7-0.2,1.1,0.3,1.4,0.7c2,2.6,3.8,5.3,5.7,8c0.3,0.4,0.5,0.9,0.4,1.5c-0.4,1.1-1.1,2-1.9,2.8c-9.6,11.3-16,24.9-18.6,39.5
			c-3,16.8-0.6,34.2,6.9,49.6c4.4,9.4,10.5,17.9,18,25.1c11.7,11.3,26,19.4,41.6,23.7c10.1,2.8,20.6,4.1,31.2,3.8
			c1.2-0.2,2.4,0,3.6,0.4c0.5,0.4,0.8,0.9,0.9,1.4c0.7,2.5,1.6,4.9,2.3,7.4C311.8,314.5,312,315.2,311.4,315.8z"/>
		<path class="st33" d="M227.5,159.7l-7.3-10c2-2.6,4.6-4.4,6.9-6.7c7.9-6.8,16.7-12.5,26.2-16.9c5.6-2.6,11.5-4.7,17.5-6.3
			c0.5,0.5,0.9,1,1.2,1.7c1.1,2.5,2.3,4.9,3.5,7.3c0.4,0.6,0.6,1.4,0.4,2.1c-0.6,1.1-1.7,1.1-2.7,1.4c-10.3,2.9-20.1,7.6-29,13.6
			c-5.4,3.8-10.4,8-15,12.8C228.8,159.2,228.4,160,227.5,159.7z"/>
		<path class="st34" d="M315.2,459.5c0.8,8.1,0,16.2,0,24.2c0.2,1.8-0.4,3.6-1.6,5c-0.7,0.7-0.6,1.7-0.7,2.6
			c-0.3,3.9-1.8,7.7-4.2,10.8c-1.5,1.8-1.9,4.2-2.6,6.4c-0.5,1.6-1,3.1-3.2,3.1c-1.6-0.1-2.7-1.1-3.2-3.3
			c-1.5-6.3-2.7-12.6-3.5-19.1c-0.2-1.3-0.3-2.4-2.1-2.3c-1.4,0.1-2.3-1-2.9-2.2c-0.6-1.1-0.8-2.4-0.9-3.7c-0.2-7,0.2-14,1.1-20.9
			c0.6-0.6,1.4-0.8,2.2-0.6c6.5,0.9,13.1,0.8,19.6-0.4C313.8,459.1,314.6,458.9,315.2,459.5z"/>
		<path class="st35" d="M315.2,459.5c-7.2,1.6-14.6,1.8-21.8,0.8c-0.7-0.1-1.4-0.1-2.1-0.1l-3.1-1c-0.5-1.1-1.9-1.9-1.2-3.4
			c0.2-0.2,0.5-0.2,0.8-0.2c3,0.8,6,1.5,9,2c1.3,0,2.5,0.1,3.8,0.3c1.5,0.7,3,1,4.6,0c4.1-0.3,8.2-1.2,12.1-2.5c0.5-0.2,1-0.2,1.5,0
			c1,1.7-0.5,2.4-1.3,3.3L315.2,459.5z"/>
		<path class="st36" d="M317.3,458.8c0.1-1.2,1.3-1.9,1.4-3.2c-0.1-0.1-0.1-0.3,0-0.5c1.2-1.1,2.7-1.7,4-2.6
			c2.7-1.8,4.7-4.5,5.7-7.6c0.2-0.4,0.5-0.9,1-0.8c0.3,0.1,0.3,0.4,0.1,0.7c0.2,2.8-0.4,5.5-1.8,8
			C324.9,456.1,321.3,457.8,317.3,458.8z"/>
		<path class="st27" d="M286.8,456c0.6,1,1.5,1.8,1.4,3.2c-4.5-1.1-8.8-2.7-11.3-7c-0.3-0.8-0.4-1.7-0.4-2.6
			c0.7-0.1,1.4,0.2,1.8,0.8c2.1,1.7,4.5,3.1,7,4.3C285.9,454.9,286.8,455,286.8,456z"/>
		<path class="st37" d="M402.7,345.1c0.3-1.7,0.8-3.3,1.6-4.8c0.4-0.7,0.9-1.1,1.7-0.7s0.5,1.1,0.2,1.7c-0.6,1.3-1.1,2.7-1.4,4
			c-0.2,0.6-0.6,1.2-1.4,0.9C402.9,346.1,402.6,345.6,402.7,345.1z"/>
		<path class="st38" d="M414.1,349.2c-0.2,0.6-0.4,1.5-0.7,2.4c-0.1,0.5-0.6,0.8-1.1,0.7c0,0-0.1,0-0.1,0c-0.5-0.1-0.8-0.7-0.7-1.2
			c0.2-0.9,0.4-1.8,0.7-2.6c0.1-0.5,0.6-0.9,1.2-0.8C414.1,347.7,414.1,348.3,414.1,349.2z"/>
		<path class="st39" d="M423.5,357.7c-0.4,0.9,0.1,2.3-1.5,2.5c-0.6,0-1-0.4-1-1c0-0.1,0-0.2,0.1-0.4c0.3-1-0.1-2.4,1.4-2.6
			C423.4,356,423.5,356.9,423.5,357.7z"/>
		<path class="st40" d="M393,406.7c-0.5,1.5-0.3,3.1-0.8,4.5c-0.4-2.4-0.3-4.9,0.3-7.2C392.9,404.9,393,405.8,393,406.7z"/>
		<path class="st37" d="M186.2,355.6c0,1-0.1,1.6-0.8,1.8s-1-0.4-1.2-0.9c-0.5-1.2-0.9-2.4-1.4-3.5c-0.2-0.6-0.4-1.3,0.4-1.6
			s1.2,0.1,1.5,0.7C185.5,353.1,185.9,354.3,186.2,355.6z"/>
		<path class="st41" d="M197.5,344.6c-0.1,0.5-0.1,0.9-0.6,1.1c-0.4,0.2-0.8,0.1-1.1-0.2c-0.8-1.3-1.6-2.7-2.3-4
			c-0.2-0.4-0.1-0.8,0.3-1.1c0.4-0.3,0.9-0.3,1.3,0.1C196.2,341.6,197,343,197.5,344.6z"/>
		<path class="st42" d="M174.2,365c0.1,0.8-0.1,1.2-0.7,1.4s-1-0.2-1.2-0.7c-0.4-0.9-0.7-2-0.7-3c0-0.6,0.1-1.1,0.8-1.2
			c0.5-0.1,1.1,0.2,1.2,0.8c0,0,0,0,0,0C173.8,363.2,174,364.2,174.2,365z"/>
		<path class="st34" d="M344.3,448.4c0.4,0.3,0.8,0.4,1.3,0.3c6.8,0.1,13.6,0.2,20.3-1.7c0.2,0,0.5-0.1,0.7-0.1
			c1.6,6.3,0.2,12-3.5,17.2c-0.8,1.2-1.3,2.6-1.4,4c-0.4,3.1-1,6.2-2,9.1c-0.3,1.5-1,2.9-1.9,4.1c-3.3,3.5-4.2,8-4.9,12.5
			c-0.2,1.4-0.5,2.8-0.8,4.2c-0.1,1.3-1.2,2.2-2.5,2.2c-1.4,0-2-0.9-2.4-2.1c-0.9-3.5-1.5-7-1.9-10.6c-0.1-0.6,0-1.2-0.5-1.6
			c-2.3-1.7-2.5-4.3-2.6-6.9c-0.2-3.8,0.2-7.5-0.3-11.3c0-0.6-0.2-1.1-0.5-1.6c-1.9-2.9-1.9-6-1.3-9.2c0.6-2.8,1-5.7,1.1-8.6
			C342.1,447.4,342.8,447.3,344.3,448.4z"/>
		<path class="st43" d="M344.3,448.4c-1,0.3-2.1-0.7-3,0.3c-0.2-0.6-0.7-0.8-1.3-0.9c-2.6-0.5-5-1.6-7.1-3.2c-0.5-0.7-1-1.3-1.5-2
			c0-0.1,0.2-0.2,0.3-0.2c0,0,0.1,0,0.1,0.1c3.7,1.8,7.7,3,11.8,3.7c0.9,0.1,1.8,0.2,2.7,0.3c2.4,0.6,4.9,0.1,7.4,0.3
			c-1.4,0.7-2.9,0.2-4.4,0.3c-0.7-0.1-1.5,0.2-2,0.8C346.6,448.9,345.4,448.2,344.3,448.4z"/>
		<path class="st34" d="M238.2,447.1c2,0.6,4.2,0.9,6.3,0.9c6.8,0.1,13.7,1.1,20.5-0.6c1.3,2,0.3,4.1,0.2,6.1
			c-0.1,4.7-0.9,9.3-2.4,13.8c-0.6,1.7-0.3,3.6-0.6,5.5c-0.3,2.4-1.1,4.7-2.4,6.8c-1.5,2.3-1.5,5-2.1,7.6c-0.4,1.7-0.5,3.4-0.8,5.1
			c-0.1,0.6-0.2,1.1-0.4,1.7c-0.3,1.2-1.3,2-2.5,2.1c-1.4,0-2.1-0.8-2.5-2c-1.1-3.5-2-7.1-2.6-10.8c-0.2-0.9-0.4-1.8-0.5-2.7
			c-0.2-1.2-0.7-2.2-1.6-3c-1.9-1.7-2-4.2-2.2-6.6c-0.2-1.4-0.6-2.1-2.1-2.4c-2.9-0.5-4.4-2.6-5.2-5.2c-1.1-3.1-0.6-6.2-0.3-9.3
			C237.2,451.7,237.8,449.4,238.2,447.1z"/>
		<path class="st44" d="M266,447c-0.6-0.9-1.2-1.9-2.5-1.8c0.9-0.5,2,0,2.9-0.6c1.8-0.2,3.7-0.5,5.4-0.9c0.8-0.3,1.7-0.3,2.5-0.1
			c-0.8,0.8-1.8,1.5-2.9,2C269.8,446.3,267.9,446.8,266,447z"/>
		<path class="st19" d="M291.9,417c-0.3-1.8-0.5-3.6-0.6-5.5c0-6.5-0.8-13-0.4-19.6c0.5-7.6,1-15.2,1.9-22.7s2.4-14.8,4-22.1
			c0.7-2.7,1.8-5.4,3.4-7.8c1.1-1.8,2.6-1.7,3.6,0.3c3,5.9,4.5,12.2,5.8,18.6c1.5,7.6,2.3,15.4,2.5,23.2c0.5,9.9,0.1,19.8,0.3,29.6
			c0,1.7-0.6,3.4-0.3,5.2c-0.5,5.7-0.9,11.3-1.4,16.9c0.1,0.5-0.1,0.8-0.6,0.7c-1-1-0.3-2.4-0.8-3.5c0.7-7.8,0.9-15.6,0.7-23.4
			c-0.2-8.6-0.8-17.2-2-25.7c-0.8-6.3-1.9-12.5-3.5-18.7c-0.6-2.2-1.4-4.3-1.9-6.5c0-0.4-0.3-0.7-0.7-0.9c-0.9,1-1.4,2.2-1.6,3.5
			c-1.4,6-2.5,12.1-3.2,18.2c-0.8,6.4-0.8,12.9-1.4,19.3c-0.8,8.8-1,17.5-1,26.3c0,2.7,0.4,5.3,0.4,8c-0.1,0.8-0.1,1.5,0.2,2.3
			c0.2,1.2,0.3,2.3,0.3,3.5c-0.1,0.5-0.2,1-0.8,1.1c-1.3-0.7-1.2-1.7-0.8-2.9c-0.7-5.1-1.3-10.1-1.9-15.2
			C292,418.6,292,417.8,291.9,417z"/>
		<path class="st23" d="M294.1,434.5c0.7,0.8,0,2,0.7,2.8c1.1,1.1,0.8,2.6,1.2,3.9c0.4,1.6,0.6,3.3,1.1,4.9c1.2,3.5,2.5,7,3.6,10.4
			c0.3,0.6,0.3,1.4,0,2c-4.5,0-9-0.8-13.2-2.5c-1-0.6-1-1.6-1-2.6c0-3.9,0-7.7,0.3-11.6c0.2-2.4,0-2.5-2.3-3c-1.4-0.2-2.8-0.6-4.2-1
			c-0.9-0.4-1.8-0.9-1.7-2.1c0.2-1-0.3-2.3,1-3c4,0,7.9,0.1,11.9,0C292.8,432.7,293.8,433,294.1,434.5z"/>
		<path class="st45" d="M279.5,432.8l-0.7,2.8c-0.3,0.5,0,1,0,1.4c0.3,0.9-0.1,2-0.9,2.5c-0.2,0-0.4,0-0.5-0.1
			c0.3-1.8,1-3.6,0.7-5.5C278.1,432.9,278.2,432.1,279.5,432.8z"/>
		<path class="st23" d="M310.4,433.8l0.3-0.7l14.1-1c0.6,0,1.3,0,1.9,0c0.7,0.6,1,1.6,0.8,2.5c-0.2,1-0.9,1.8-1.9,2.1
			c-1.2,0.6-2.4,1.1-3.6,1.6c-2.3,0.9-2.5,1.2-2.2,3.7c0.5,3,0.7,6.1,0.6,9.1c-0.1,1.6-0.3,3.2-1.7,4.3c0,0.1,0,0.2,0,0.2
			c-4,1.6-8.3,2.6-12.6,2.9c-0.4,0-0.8,0-1.2,0c-0.7-0.8-0.2-1.5,0-2.3c1.5-5.1,2.8-10.3,3.7-15.6
			C309.2,438.4,309.4,436,310.4,433.8z"/>
		<path class="st46" d="M327.1,434.5c0-0.8-0.5-1.5-0.4-2.4c2-0.1,3.9-0.6,5.9-0.4c-0.8,2.7-1.3,5.4-1.6,8.1c-0.1,1.1,0,1.9,0.9,2.6
			l-0.4,0.1l-2,2.4c-0.6-0.7-0.4,0.5-0.7,0.4c-0.3-0.2-0.5-0.6-0.5-1c0-2.3-0.4-4.7-1.1-6.9C326.9,436.4,327.3,435.5,327.1,434.5z"
			/>
		<path class="st47" d="M203,297.9c-0.5,0-0.9-0.3-0.9-0.8c-0.1-0.4,0.3-0.9,0.7-0.9c0,0,0.1,0,0.1,0c0.5,0,0.9,0.4,0.9,0.8
			S203.5,297.8,203,297.9L203,297.9z"/>
		<path class="st48" d="M204.1,317c-0.1,0.5-0.4,0.9-0.9,0.8c-0.4,0-0.8-0.3-0.8-0.8c0,0,0-0.1,0-0.1c0-0.4,0.3-0.8,0.7-0.8
			c0.1,0,0.1,0,0.2,0C203.7,316.1,204.1,316.5,204.1,317C204.1,316.9,204.1,317,204.1,317z"/>
		<path class="st49" d="M203.9,307.3c0,0.5-0.2,0.9-0.8,1c-0.5,0.1-0.9-0.3-0.9-0.7c0,0,0-0.1,0-0.1c-0.1-0.4,0.2-0.8,0.6-0.9
			c0.1,0,0.1,0,0.2,0c0.4-0.1,0.8,0.2,0.9,0.6C203.9,307.2,203.9,307.2,203.9,307.3z"/>
		<path class="st50" d="M277.4,439.4h0.4c0.4,0.6,0.5,1.1-0.3,1.4l-0.3-0.4C277.2,440.1,277.3,439.8,277.4,439.4z"/>
		<path class="st21" d="M277.4,440.8c0.3-0.4,0.4-0.9,0.3-1.4c0.8-1.2,0.4-2.6,1-3.8c0,1.2,1,1.5,1.9,1.7c1.8,0.5,3.6,0.9,5.4,1.2
			c0.9,0,1.5,0.7,1.5,1.6c0,0.1,0,0.2,0,0.3c-0.2,4.5-0.5,9-0.4,13.5c-0.1,0.8,0,1.5,0.3,2.2h-0.7c-3.8-1.5-7.3-3.7-10.4-6.4
			C275.9,446.6,276.8,443.7,277.4,440.8z"/>
		<path class="st46" d="M378,432.4l0.4,0.8c-0.1,0.5,0,1-0.4,1.4C378,433.8,378,433.1,378,432.4z"/>
		<path class="st51" d="M369.4,99.1c-0.5-0.1-0.9-0.4-0.8-0.9c0.1-0.5,0.5-0.8,1-0.7c0.5,0.1,0.8,0.5,0.8,0.9
			C370.3,98.9,369.9,99.1,369.4,99.1z"/>
		<path class="st52" d="M374.5,104.3c-0.1,0.5-0.4,0.9-0.9,0.8c-0.5,0-0.8-0.3-0.9-0.7c0-0.1,0-0.2,0-0.3c0-0.4,0.3-0.8,0.8-0.8
			c0.1,0,0.1,0,0.2,0C374.1,103.5,374.5,103.8,374.5,104.3C374.5,104.3,374.5,104.3,374.5,104.3z"/>
		<path class="st33" d="M311.4,315.8c-0.7-3.7-2.3-7.1-3-10.8c0.2-0.5,0.8-0.9,1.4-0.9c4-0.2,8-1,12-1.5c0.3,0,0.7,0,1,0.1
			c0.6,0.4,1.1,1.1,1.3,1.8c0.9,2.2,1.8,4.5,2.7,6.8c0.3,0.7,0.6,1.4,0,2.1C321.7,314.8,316.6,315.6,311.4,315.8z"/>
		<path class="st53" d="M342.3,324.6c1.8,5,2.5,10.3,3.1,15.5c0.4,3.3,0.6,4.2,4.6,3.4c7.5-1.5,15-3,22.2-5.9l6.5-2.7
			c1.6,1,0.4,1.5-0.4,1.8c-3.8,1.7-7.7,3.4-11.6,5c-5.1,2.1-10.6,3.1-16,4.3c-1.3,0.2-2.5,0.2-3.8,0.1c-1.4,0-2.5-1.2-2.6-2.5
			c-0.8-5.4-1.7-10.8-3-16.1c-0.1-0.7-0.1-1.5-0.1-2.2C341.2,324.3,341.7,324.2,342.3,324.6z"/>
		<path class="st32" d="M326.7,313.4l-3.9-10.4c1.3-1.4,5-2.2,6.5-1.4c1.5,3.3,3.1,6.7,4.6,10C331.5,312.4,329.1,313,326.7,313.4z"
			/>
		<path class="st33" d="M292.7,116.1c-1.1,0.2-1.3,0.6-0.8,1.7c1.5,3.3,3.1,6.6,4.3,10.1c-0.2,0.6-0.8,1-1.5,1
			c-4.3,0-8.4,0.9-12.6,1.5c-0.3,0.1-0.7,0-1-0.1c-0.6-0.3-1.1-0.8-1.3-1.5c-1-2.7-2-5.3-2.9-8c-0.4-0.7-0.3-1.6,0.2-2.3
			c2.8-1.1,5.7-1.2,8.6-1.7C288,116.4,290.4,116.3,292.7,116.1z"/>
		<path class="st32" d="M277.1,118.5c0.2,2.4,1.3,4.5,2.1,6.7c0.5,1.6,1.1,3.1,1.7,4.7c-1.4,1.3-3.4,1.7-5.1,1.1l-4.4-9.3
			c-0.3-0.5-0.5-1.1-0.5-1.8C272.9,119.2,275,118.8,277.1,118.5z"/>
		<path class="st54" d="M275.7,130.9l5.1-1.1c4.5-1,9.1-1.5,13.6-1.7c0.6,0,1.1-0.1,1.7-0.3c5.8-0.2,11.5,0.1,17.3,0.6
			c10.3,1.2,20.3,3.9,29.8,8c10.9,4.7,20.7,11.4,29.1,19.7c12.8,12.7,21.1,27.9,24.4,45.8c3.5,19.2,0.2,37.3-9,54.4
			c-0.7,1.3-1.4,2.6-2.2,3.9c-4,6.3-8.7,12.1-14,17.3c-11.4,10.9-25.3,19-40.5,23.4c-0.6,0.2-1.2,0.5-1.8,0.7l-6.5,1.4
			c-4.1,0.9-8.3,1.5-12.6,1.7c-0.6,0.1-1.2,0.2-1.9,0.3c-5-0.1-9.9,0.1-14.9-0.2c-11.3-0.9-22.4-3.6-32.8-8.1
			c-11.5-4.9-22-12-30.7-21c-12.7-13-21-28.5-23.7-46.6c-3.7-25,3-47.1,18.9-66.6l2.3-2.8c8.7-9.5,19.2-17.1,30.8-22.5
			C264,134.7,269.8,132.6,275.7,130.9z"/>
		<path class="st55" d="M360.3,330.8c0.2,0.6,0.4,1.2,0.6,1.8h-0.3c-0.4-0.3-0.7-0.9-0.7-1.4L360.3,330.8z"/>
		<path class="st56" d="M309.3,440.8c-1,6-2.5,11.9-4.4,17.7c-1.4,1.5-2.8,1.1-4.2,0c-1.4-4.1-3.1-8-4.2-12.2c0-2.5-0.9-4.9-1.2-7.4
			c-0.1-0.9,0.3-1.8-0.2-2.7c-0.3-1.1-0.4-2.3-0.4-3.5c-0.4-0.6,0.1-1.5-0.3-2.1c-0.5-6.9-0.6-13.7-0.3-20.6
			c0.1-6,0.7-12.1,1.3-18.1c0.2-2.4,0.3-4.8,0.4-7.2c0.5-9,1.8-18,4-26.8c0.4-1.3,1-2.6,1.7-3.8c0.2-0.3,0.4-0.8,0.9-0.6
			s0.4,0.5,0.5,0.8c1.5,5.5,3.3,11,4.3,16.7s1.7,11.1,2.4,16.8c0.4,3.5,0.5,7.1,0.8,10.7c0.5,6.4,0.3,12.8,0.3,19.2
			c0,4.2-0.4,8.4-0.7,12.6c-0.4,2.1,0.1,4.3-0.3,6.5C309.5,438.2,308.7,439.4,309.3,440.8z"/>
		<path class="st21" d="M327.1,434.5c1,3.5,2.3,7,1.7,10.8c-0.7,3.5-3,5.8-5.7,7.7c-1.3,1-2.8,1.8-4.4,2.4c1.3-3,1.1-6.2,0.8-9.4
			c-0.1-2-0.3-4-0.5-6c-0.1-1.2,0.4-1.7,1.5-2.1c1.8-0.6,3.5-1.4,5.3-2.2C326.4,435.6,327,435.3,327.1,434.5z"/>
		<path class="st57" d="M295.1,436.3c0.6,3.1,1.1,6.2,1.7,9.3c0,0.2-0.2,0.5-0.3,0.8c-0.8-2.9-1.4-6-1.8-9
			C295,437,295.2,436.7,295.1,436.3z"/>
		<path class="st58" d="M309.3,440.8c-0.8-1.4-0.1-2.8,0.1-4.2c0.3-2.1,0-4.2,0.6-6.2c0.2,1.1-0.4,2.4,0.4,3.5
			C310.5,436.2,309.4,438.4,309.3,440.8z"/>
		<path class="st57" d="M294.4,430.7c0.5,0.6,0.3,1.4,0.3,2.1C294.2,432.2,294.5,431.4,294.4,430.7z"/>
		<path class="st22" d="M338.4,289.5c-1.4,0.1-2.7-0.5-3.4-1.7c-1.2-2.1-2.5-4.1-3.7-6.2c-1.3-2.4-0.9-3.7,1.6-4.8
			c3.6-1.5,6.5-4.2,9.6-6.5c2.7-2,5.2-4.1,7.9-6.2c0.4-0.4,0.9-0.7,1.4-1c2.5-1.3,4.2-0.9,5.7,1.5c1.4,2.3,2.5,4.7,3.5,7.1
			c0.6,1.2,0.4,2.6-0.6,3.5c-5.2,4.5-10.4,8.9-16.6,12.2C342.2,288.5,340.4,289.2,338.4,289.5z"/>
		<path class="st22" d="M233.5,181.5c-1,0-2-0.5-2.7-1.3c-2-2.2-3.8-4.5-5.3-7c-0.7-1-0.6-2.4,0.2-3.4c4.2-5.2,8.4-10.4,13.7-14.6
			c1.3-1.1,2.7-2,4.2-2.8c2.1-1.1,3.6-0.8,5.2,1c1.4,1.6,2.9,3.2,4.2,4.8c1.9,2.2,1.6,3.7-0.7,5.2c-3.3,2.2-5.6,5.3-8.2,8.2
			c-2.3,2.5-4.5,5.1-6.7,7.7C236.4,180.5,235,181.2,233.5,181.5z"/>
		<path class="st59" d="M258.8,152.9c0.1,0.9-0.4,1.7-1.2,2.1c-0.8,0.4-1.8,0.3-2.4-0.3c-1.3-1.2-2.7-2.5-3.9-3.9s-1.2-2.8-0.1-3.7
			c1.3-1.1,2.5-0.6,3.6,0.4c1,0.9,2,1.8,2.9,2.7C258.3,150.9,258.7,151.9,258.8,152.9z"/>
		<path class="st60" d="M326.9,284.1c0.6,0,1.3,0.3,1.7,0.8c1.1,1.6,2.3,3.2,3.3,4.8c0.8,1,0.6,2.5-0.4,3.2c-0.1,0-0.1,0.1-0.2,0.1
			c-1,0.7-2.4,0.5-3.1-0.5c-0.1-0.1-0.1-0.2-0.2-0.3c-1.2-1.7-2.9-3-3.2-5.2C324.6,285.4,325.4,284.1,326.9,284.1z"/>
		<path class="st61" d="M373.1,321.1c-0.3,0.7-0.9,1.5-1.5,1.5c-1-0.1-0.7-1.3-1-2.1c-0.2-0.5,0-0.8,0.5-0.7
			C371.9,320,372.8,320.2,373.1,321.1z"/>
		<path class="st62" d="M365.6,325.3c-0.2,1-1.1,0.6-1.6,0.9c-0.3,0.2-0.9,0.2-0.8-0.4c0.2-0.8,0.3-1.9,1.3-2
			C365.2,323.7,365.3,324.7,365.6,325.3z"/>
		<g>
			<path class="st32" d="M358.8,329.5c-0.6,0.5-1.4,1.1-2.5,1.5c0.2,0.5,0.3,0.9,0.4,1.3c0.2,0.4,0.3,0.8,0.5,1.2
				c0.1,0.1,0.1,0.2,0.1,0.3c0,0.1,0.1,0.2,0,0.3c0,0.1-0.1,0.2-0.2,0.2c-0.1,0-0.2,0-0.3-0.1c-0.1-0.1-0.1-0.3-0.2-0.6
				c-0.1-0.3-0.2-0.5-0.3-0.8l-0.6-1.6c0,0-0.1,0-0.2,0.1c-0.1,0-0.2,0.1-0.3,0.1c-0.2,0.1-0.3,0-0.4-0.3c-0.1-0.2-0.1-0.3,0-0.3
				c0,0,0.1,0,0.3,0c0.2,0,0.3,0,0.4-0.1l-1.2-3.2c-0.1,0-0.2,0-0.4,0.1c-0.2,0-0.3,0.1-0.5,0c-0.1,0-0.2-0.1-0.2-0.2
				c-0.1-0.2-0.1-0.3,0-0.3c0.1,0,0.2,0,0.3,0c0,0,0.1,0,0.2,0s0.2,0,0.3,0c0-0.1,0-0.2,0-0.3c0-0.1,0.1-0.1,0.2-0.2
				c0.2-0.1,0.2-0.1,0.3,0c0,0,0,0.1,0,0.1c0,0.1,0,0.1,0,0.2c0.5-0.1,1.1-0.2,1.7-0.2c0.7,0,1.3,0.1,1.8,0.2c0.5,0.2,0.9,0.4,1,0.8
				C359.6,328.4,359.4,328.9,358.8,329.5z M358.1,327.4c-0.5-0.1-1-0.2-1.5-0.2s-1.1,0.1-1.6,0.2c0.2,0.4,0.4,1,0.7,1.7
				c0.3,0.7,0.4,1.2,0.5,1.4c0.5-0.2,0.9-0.4,1.4-0.7c0.5-0.3,0.8-0.6,1.1-0.9c0.3-0.3,0.4-0.6,0.3-0.8
				C358.8,327.8,358.5,327.5,358.1,327.4z"/>
			<path class="st32" d="M359.1,323.2c-0.1,0-0.3,0-0.4,0c-0.2-0.1-0.3-0.1-0.3-0.2c0-0.1,0-0.2,0-0.3s0.1-0.2,0.2-0.2
				c0.1,0,0.2,0,0.3,0.1c0.1,0,0.2,0.1,0.3,0.2c0.1,0.1,0.2,0.1,0.2,0.1C359.5,323,359.4,323.1,359.1,323.2z M362.3,330.1
				c0,0.1-0.1,0.1-0.2,0.1c-0.1,0-0.2-0.1-0.4-0.4c-0.2-0.3-0.4-0.9-0.8-1.8c-0.2-0.6-0.5-1.2-0.7-1.8s-0.4-1-0.5-1.3
				c0-0.1,0-0.1,0-0.2c0,0,0.1-0.1,0.1-0.1c0.2-0.1,0.3,0,0.4,0.1s0.2,0.4,0.4,0.8l0.5,1.3c0.3,0.8,0.5,1.4,0.7,1.8
				c0,0,0.1,0.3,0.4,0.7c0.2,0.3,0.3,0.5,0.3,0.6C362.3,330,362.3,330.1,362.3,330.1z"/>
			<path class="st32" d="M370.8,326.9c0,0.1-0.1,0.1-0.2,0.2c-0.1,0-0.2,0-0.3-0.1c-0.5-1.5-1-2.7-1.4-3.4c-0.4-0.8-0.7-1.1-0.9-1
				c-0.4,0.1-0.5,1.8-0.2,4.9l0,0c0,0.1,0,0.2,0,0.3c0,0.1-0.1,0.1-0.2,0.2c-0.1,0-0.2,0-0.3-0.1c-0.1-0.3-0.3-0.8-0.5-1.4
				c-0.2-0.7-0.4-1.3-0.6-1.7c-0.2-0.6-0.4-1-0.5-1.2c-0.1-0.2-0.2-0.3-0.3-0.3c-0.3,0.1-0.4,0.7-0.5,1.8c-0.1,1.1-0.1,2.3,0,3.8
				l0,0.3c0,0.1,0,0.2-0.1,0.2c0,0.1-0.1,0.1-0.2,0.1c-0.1,0-0.2,0-0.2,0c0,0-0.1,0-0.1-0.1c-0.2-0.4-0.4-0.8-0.6-1.4
				c-0.1-0.2-0.2-0.4-0.3-0.8c-0.5-1.2-0.9-2.1-1.1-2.5c-0.2-0.4-0.3-0.7-0.4-0.7c0-0.1,0-0.1,0-0.2s0.1-0.2,0.1-0.2
				c0.1,0,0.2,0,0.4,0.2c0.1,0.1,0.2,0.4,0.5,0.9c0.3,0.6,0.6,1.3,0.9,2.1l0.7,1.7c0-1.4,0-2.7,0-3.9c0.1-1.2,0.3-1.9,0.7-2
				c0.2-0.1,0.5,0,0.7,0.4c0.2,0.3,0.5,0.8,0.7,1.5c0.1,0.4,0.3,0.9,0.5,1.6l0.2,0.5c-0.1-1.2-0.1-2.2-0.1-3c0-0.8,0.2-1.3,0.5-1.4
				c0.8-0.3,1.8,1.3,3,4.7C370.8,326.8,370.8,326.9,370.8,326.9z"/>
			<path class="st32" d="M375.3,323.7c-0.1,0.5-0.3,0.9-0.6,1.3c-0.3,0.4-0.7,0.7-1.2,0.9c-0.5,0.2-0.9,0.2-1.3,0
				c-0.3-0.2-0.6-0.5-0.7-0.9c-0.1-0.4-0.2-0.8-0.3-1.4s0-1.1,0-1.6c0,0,0-0.2,0.1-0.4c0-0.2,0.1-0.4,0.2-0.6s0.2-0.3,0.4-0.3
				c0.1,0,0.1,0,0.2,0c0.1,0,0.1,0,0.1,0.1c0,0,0,0.1,0,0.1c0,0.1,0,0.1,0,0.2c-0.1,0.4-0.2,0.8-0.3,1.1c-0.1,0.5-0.1,0.9-0.1,1.3
				c0,0.4,0.1,0.9,0.3,1.3c0.2,0.6,0.7,0.8,1.4,0.5c0.3-0.1,0.6-0.3,0.8-0.6s0.4-0.6,0.4-1c0.1-0.3,0.1-0.6,0-0.9
				c-0.1-0.3-0.3-0.5-0.5-0.6c-0.2-0.1-0.6-0.3-0.9-0.4c-0.2-0.1-0.4-0.1-0.6-0.2s-0.2-0.1-0.2-0.2c0-0.1,0-0.2,0.1-0.3
				c0.1-0.1,0.2-0.2,0.4-0.2c0.1,0,0.2-0.1,0.2-0.1c0,0,0.1,0,0.1,0c0,0,0,0,0,0.1c0,0,0,0.1,0,0.1c0,0,0.1,0.1,0.3,0.1
				c0.4,0.1,0.7,0.3,1,0.5s0.5,0.4,0.6,0.8C375.4,322.9,375.4,323.2,375.3,323.7z"/>
			<path class="st32" d="M380.1,321.9c-0.1,0.5-0.3,0.9-0.6,1.3c-0.3,0.4-0.7,0.7-1.2,0.9c-0.5,0.2-0.9,0.2-1.3,0
				c-0.3-0.2-0.6-0.5-0.7-0.9c-0.1-0.4-0.2-0.8-0.3-1.4c-0.1-0.6,0-1.1,0-1.6c0,0,0-0.2,0.1-0.4s0.1-0.4,0.2-0.6
				c0.1-0.2,0.2-0.3,0.4-0.3c0.1,0,0.1,0,0.2,0c0.1,0,0.1,0,0.1,0.1c0,0,0,0.1,0,0.1s0,0.1,0,0.2c-0.1,0.4-0.2,0.8-0.3,1.1
				c-0.1,0.5-0.1,0.9-0.1,1.3c0,0.4,0.1,0.8,0.3,1.3c0.2,0.6,0.7,0.8,1.4,0.5c0.3-0.1,0.6-0.3,0.8-0.6c0.2-0.3,0.4-0.6,0.4-1
				c0.1-0.3,0.1-0.6,0-0.9c-0.1-0.3-0.3-0.5-0.5-0.6c-0.2-0.1-0.6-0.3-0.9-0.4c-0.2-0.1-0.4-0.1-0.6-0.2c-0.1-0.1-0.2-0.1-0.2-0.2
				c0-0.1,0-0.2,0.1-0.3s0.2-0.2,0.4-0.2c0.1,0,0.2-0.1,0.2-0.1c0,0,0.1,0,0.1,0c0,0,0,0,0,0.1c0,0,0,0.1,0,0.1c0,0,0.1,0.1,0.3,0.1
				c0.4,0.1,0.7,0.3,1,0.5c0.3,0.2,0.5,0.4,0.6,0.8C380.2,321.1,380.2,321.5,380.1,321.9z"/>
			<path class="st32" d="M385.7,321.8c-0.1,0.1-0.1,0.2-0.2,0.2c-0.1,0-0.1,0-0.2,0c-0.1,0-0.1-0.1-0.1-0.1
				c-0.1-0.3-0.3-0.8-0.5-1.5c-0.2-0.7-0.4-1.3-0.6-1.8c-0.2-0.4-0.3-0.8-0.4-1.1c-0.1-0.3-0.2-0.4-0.3-0.4
				c-0.3,0.1-0.4,0.5-0.5,1.3s-0.1,1.7-0.1,2.9l0,0.5c0,0.1,0,0.2-0.1,0.2c-0.1,0.1-0.1,0.1-0.2,0.1c-0.1,0-0.2,0-0.2,0
				c0,0-0.1,0-0.1-0.1l-0.4-0.9l-0.8-1.6c-0.3-0.6-0.6-1.2-0.8-1.6c-0.1-0.1-0.1-0.2-0.1-0.2c0-0.1,0-0.2,0-0.3
				c0.1-0.1,0.2-0.2,0.3-0.2c0.1,0,0.2,0.1,0.4,0.5c0.2,0.3,0.4,0.9,0.7,1.7l0.3,0.6c0.3,0.7,0.5,1.2,0.6,1.4c0-0.1,0-0.1,0-0.2
				s0-0.1,0-0.2c0-1.2,0.1-2.2,0.2-3c0.1-0.8,0.3-1.3,0.7-1.4c0.2-0.1,0.5,0.1,0.7,0.4c0.2,0.4,0.5,0.9,0.7,1.5
				c0.3,0.7,0.6,1.7,1.1,3C385.8,321.6,385.8,321.7,385.7,321.8z"/>
		</g>
		<path class="st63" d="M353.4,193.6c-3-7-7.2-13.3-12.6-18.7c-5.4-5.4-11.7-9.6-18.7-12.6c-7.2-3.1-14.9-4.6-22.9-4.6
			c-7.9,0-15.6,1.6-22.9,4.6c-7,3-13.3,7.2-18.7,12.6c-5.4,5.4-9.6,11.7-12.6,18.7c-3.1,7.2-4.6,14.9-4.6,22.9s1.6,15.6,4.6,22.9
			c3,7,7.2,13.3,12.6,18.7c5.4,5.4,11.7,9.6,18.7,12.6c7.2,3.1,14.9,4.6,22.9,4.6c7.9,0,15.6-1.6,22.9-4.6c7-3,13.3-7.2,18.7-12.6
			c0.5-0.5,0.9-0.9,1.3-1.4c0.3-0.3,0.1-0.7-0.3-0.7h-11.3c-0.1,0-0.2,0-0.3,0.1c-10.1,7.9-22.8,11.7-36,10.5
			c-10.1-1-19.6-5-27.3-11.5c-12-10.2-18.5-24.9-17.9-40.5c0.4-11.7,5-22.9,12.8-31.6c11.8-13.1,29.1-19.1,46.9-15.8
			c6.5,1.2,12.7,3.7,18.2,7.4c14.4,9.7,22.6,25.2,22.6,42c0,3.2-0.3,6.3-0.9,9.3c-0.5,2.3-2.9,8.7-12.1,8.7c-11.3,0-19.9,0-21,0
			c-0.5,0-0.9-0.1-1.4-0.2c-1-0.3-1.8-0.8-2.4-1.6c-0.9-1.1-1.3-2.4-1.1-3.8c0.2-0.9,0.2-1.8,0.4-2.6c0.3-1.4,0.6-2.8,0.8-4.1
			c0.2-1,0.4-2,0.5-3c0.2-0.9,0.3-1.9,0.5-2.8c0.2-1.3,0.5-2.5,0.7-3.8c0.2-1.1,0.4-2.3,0.6-3.4c0.1-0.4,0.1-0.8,0.2-1.3
			c0.2-0.8,0.3-1.7,0.5-2.5c0-0.3,0.2-0.4,0.5-0.4c4.3,0,8.5,0,12.8,0c1,0,1.7-0.6,1.8-1.7c0-0.7,0.1-1.4,0.2-2.1
			c0.1-0.5,0.1-0.9,0.2-1.4c0.1-1.1,0.3-2.2,0.3-3.3c0-0.3-0.2-0.6-0.4-0.8c-0.3-0.4-0.7-0.4-1.2-0.4c-7.8,0-15.5-0.1-23.3-0.1
			c-9.7,0-19.5,0-29.2,0c-0.7,0-1.4,0-2.1,0.2c-1.6,0.4-3,1.2-4.2,2.3c-1.5,1.4-2.4,3.1-2.8,5c-0.1,0.4-0.1,0.9-0.2,1.3
			c-0.2,0.9-0.3,1.8-0.5,2.7c-0.1,0.6-0.1,1.2-0.2,1.8c-0.1,0.4-0.1,0.8-0.2,1.2c-0.2,0.8,0.4,1.6,1.2,1.6c2.5,0,5,0,7.5,0
			c0.4,0,0.7-0.2,0.9-0.5c0.2-0.4,0.3-0.8,0.4-1.2c0.1-0.7,0.2-1.3,0.3-2c0.4-1.5,2-2.8,3.7-2.7c1.5,0.1,3,0,4.5,0
			c0.1,0,0.3,0,0.5,0c-0.2,1.3-0.5,2.5-0.7,3.8c-0.1,0.4-0.1,0.8-0.2,1.3c-0.1,0.7-0.3,1.4-0.5,2.1c-0.2,1.1-0.4,2.3-0.6,3.5
			c-0.3,1.4-0.6,2.7-0.8,4.1c-0.2,1.2-0.5,2.5-0.7,3.7c-0.2,1-0.4,1.9-0.5,2.9c-0.2,1-0.4,1.9-0.5,2.9c-0.2,1.2-0.5,2.5-0.7,3.7
			c-0.2,1-0.4,1.9-0.5,2.9c-0.3,1.5-0.5,2.9-0.7,4.4c-0.1,0.4-0.1,0.7-0.2,1.1c-0.1,0.6-0.3,1.1-0.3,1.7c-0.1,0.9,0.5,1.5,1.5,1.5
			c2.3,0,4.6,0,6.9,0c0.2,0,0.3,0,0.5-0.1c0.7-0.3,0.9-0.9,1-1.5c0.1-0.5,0.2-1,0.3-1.5c0.1-0.8,0.3-1.5,0.5-2.3
			c0.1-0.6,0.2-1.1,0.3-1.7c0.1-0.8,0.3-1.6,0.4-2.3c0.1-0.4,0.1-0.7,0.2-1.1c0.2-0.8,0.3-1.7,0.5-2.5c0.2-0.8,0.3-1.7,0.5-2.5
			c0.1-0.7,0.3-1.5,0.4-2.2c0.1-0.7,0.2-1.5,0.4-2.2c0.2-0.8,0.3-1.6,0.5-2.4c0.1-0.7,0.3-1.5,0.4-2.2c0.2-0.8,0.3-1.6,0.5-2.4
			c0.1-0.8,0.2-1.6,0.4-2.3c0.2-1.1,0.5-2.3,0.7-3.4c0.2-0.9,0.4-1.8,0.5-2.7c0.2-1.1,0.4-2.2,0.6-3.3c0.1-0.6,0.2-0.7,0.8-0.7
			c2.7,0,5.3,0,8,0c0.4,0,0.8,0,1.1,0c0.1,0,0.3,0.2,0.3,0.2c-0.1,0.5-0.2,1.1-0.3,1.6c-0.2,0.9-0.3,1.7-0.5,2.6
			c-0.1,0.8-0.3,1.6-0.4,2.3c-0.2,0.9-0.3,1.7-0.5,2.6c-0.1,0.4-0.1,0.7-0.2,1.1c-0.2,0.8-0.3,1.6-0.5,2.4c-0.1,0.7-0.3,1.5-0.4,2.2
			c-0.2,0.8-0.3,1.7-0.5,2.5c-0.1,0.7-0.2,1.5-0.4,2.2c-0.2,1.1-0.5,2.2-0.7,3.2c-0.2,0.8-0.2,1.6-0.4,2.4c-0.2,1.1-0.5,2.2-0.6,3.3
			c-0.1,1.6-0.1,3.1,0.5,4.6c0.7,1.8,1.9,3.3,3.5,4.4c1.5,1,3.2,1.6,5,1.6c2.9,0,24.6,0,27.5,0c0,0,14.7,0.7,18.9-10.7
			c0.8-2.6,1.4-5.2,1.8-7.9l0,0c0.5-3.1,0.7-6.2,0.7-9.4C358,208.5,356.4,200.8,353.4,193.6z"/>
	</g>
</g>
</svg>
